<svg width="110" height="32" viewBox="0 0 110 32" fill="none" xmlns="http://www.w3.org/2000/svg">
<g clip-path="url(#clip0)">
<path d="M36.5032 31.9999C35.071 32.021 33.6771 31.5344 32.5664 30.6254L33.6302 29.1709C34.4327 29.8177 35.4311 30.1692 36.4598 30.1672C37.8348 30.1672 38.7611 29.549 38.7611 28.2763C38.7611 27.1418 37.6973 26.4872 36.4888 25.9054C34.5421 24.9454 32.5664 24.0872 32.5664 21.5054C32.5664 19.5127 34.05 18.029 36.4598 17.9927C37.7527 17.9997 39.0135 18.3976 40.0783 19.1345L39.0796 20.6472C38.3221 20.0377 37.362 19.7412 36.3947 19.8181C35.3236 19.8181 34.4625 20.3709 34.4625 21.3672C34.4625 22.8218 35.7723 23.3309 37.4296 24.1527C39.0868 24.9745 40.5921 25.8763 40.5921 28.1454C40.6355 30.5454 38.7756 31.9345 36.5032 31.9999Z" fill="#847fd8"/>
<path d="M43.6681 31.6872L43.5957 18.1672L51.1727 18.1309V19.8909L45.4556 19.9199V24.2254L51.0352 24.189V25.9418L45.4556 25.9781V29.9709L51.52 29.9345V31.6872H43.6681Z" fill="#847fd8"/>
<path d="M61.1298 31.8619C59.3062 31.8446 57.5632 31.1045 56.2798 29.8025C54.9964 28.5004 54.2764 26.7418 54.2765 24.9091C54.2491 23.9911 54.4067 23.077 54.7397 22.2217C55.0728 21.3664 55.5745 20.5876 56.2146 19.9321C56.8547 19.2765 57.6201 18.7578 58.4648 18.4071C59.3094 18.0563 60.2159 17.8808 61.1298 17.891C62.9663 17.8292 64.7554 18.4833 66.1232 19.7164L64.9508 21.091C63.8714 20.1566 62.4811 19.6658 61.0574 19.7164C58.3363 19.7164 56.1653 21.7819 56.1653 24.9091C56.1799 26.2423 56.7084 27.5178 57.6397 28.4673C58.571 29.4168 59.8325 29.9662 61.1587 30.0001C62.0272 30.0582 62.89 29.8227 63.61 29.3312C64.3299 28.8396 64.8656 28.1201 65.1317 27.2873H61.0574V25.5346H67.2883C67.3037 26.3581 67.1559 27.1765 66.8535 27.9421C66.5512 28.7077 66.1003 29.4052 65.5272 29.994C64.9541 30.5829 64.2702 31.0512 63.5152 31.3719C62.7603 31.6926 61.9494 31.8591 61.1298 31.8619Z" fill="#847fd8"/>
<path d="M75.4874 31.7963C72.3683 31.7963 70.1973 29.8182 70.1973 26.4945V18.1018H72.0065V26.4945C72.0065 29.1127 73.6565 30.0727 75.415 30.0727C77.1736 30.0727 78.8815 29.0909 78.8815 26.4582V18.0654H80.7052L80.7413 26.4582C80.776 27.1634 80.6643 27.8682 80.4133 28.5278C80.1622 29.1873 79.7775 29.7872 79.2833 30.2892C78.7892 30.7913 78.1966 31.1845 77.5431 31.444C76.8896 31.7034 76.1895 31.8234 75.4874 31.7963Z" fill="#847fd8"/>
<path d="M91.7047 31.5201L86.2336 25.2219V31.5492H84.3737L84.3086 18.0292H88.6507C89.1888 17.9966 89.7279 18.0745 90.235 18.2583C90.7421 18.4421 91.2066 18.7279 91.6001 19.0982C91.9936 19.4685 92.3079 19.9155 92.5237 20.4119C92.7395 20.9084 92.8524 21.4438 92.8553 21.9856C92.8462 23.0059 92.4422 23.9826 91.729 24.7088C91.0158 25.4351 90.0493 25.8538 89.0343 25.8765L94.0277 31.5201H91.7047ZM88.3974 19.7528H86.2264V24.3928H88.3974C88.7223 24.4295 89.0512 24.3968 89.3626 24.2969C89.6741 24.197 89.961 24.0322 90.2047 23.8132C90.4484 23.5942 90.6434 23.326 90.7769 23.0261C90.9104 22.7262 90.9794 22.4014 90.9794 22.0728C90.9794 21.7443 90.9104 21.4195 90.7769 21.1196C90.6434 20.8197 90.4484 20.5515 90.2047 20.3325C89.961 20.1135 89.6741 19.9487 89.3626 19.8488C89.0512 19.7489 88.7223 19.7162 88.3974 19.7528Z" fill="#847fd8"/>
<path d="M102.655 31.6873C101.736 31.7039 100.823 31.535 99.97 31.1905C99.1172 30.8461 98.3419 30.3331 97.69 29.6821C97.0381 29.031 96.5228 28.2551 96.1748 27.4002C95.8267 26.5454 95.653 25.629 95.6638 24.7055C95.6338 23.773 95.7906 22.844 96.125 21.9737C96.4593 21.1034 96.9644 20.3095 97.6101 19.6392C98.2559 18.969 99.0291 18.436 99.8839 18.072C100.739 17.7081 101.657 17.5205 102.586 17.5205C103.514 17.5205 104.433 17.7081 105.288 18.072C106.143 18.436 106.916 18.969 107.562 19.6392C108.207 20.3095 108.712 21.1034 109.047 21.9737C109.381 22.844 109.538 23.773 109.508 24.7055C109.525 25.6192 109.361 26.5271 109.023 27.3759C108.686 28.2247 108.184 28.9971 107.545 29.6477C106.907 30.2983 106.145 30.8139 105.305 31.1642C104.465 31.5144 103.564 31.6923 102.655 31.6873ZM102.517 19.5418C99.6223 19.5418 97.596 21.7236 97.596 24.7055C97.5826 25.3795 97.7025 26.0495 97.9488 26.6765C98.1951 27.3036 98.5629 27.8753 99.0308 28.3584C99.4987 28.8414 100.057 29.2263 100.674 29.4906C101.292 29.755 101.955 29.8935 102.626 29.8982C103.301 29.9024 103.971 29.7671 104.592 29.5008C105.214 29.2344 105.774 28.8426 106.239 28.3496C106.704 27.8567 107.063 27.2731 107.294 26.635C107.525 25.9969 107.623 25.3179 107.583 24.64C107.609 23.964 107.496 23.2898 107.251 22.6598C107.006 22.0297 106.634 21.4573 106.158 20.9786C105.683 20.4999 105.114 20.1252 104.487 19.8779C103.86 19.6307 103.19 19.5163 102.517 19.5418Z" fill="#847fd8"/>
<path d="M2.89474 31.8618L2.82237 22.2254C2.03169 22.8943 1.03346 23.2647 0 23.2727V21.0909C1.54868 20.8873 2.68487 20.3636 3.61842 18.3418H5.78947L5.86184 31.8618H2.89474Z" fill="#847fd8"/>
<path d="M16.6006 25.2218L13.4959 29.3163H17.8381V31.8254L8.50977 31.8618L14.1545 24.1527C14.6723 23.5659 14.9536 22.806 14.9433 22.0218C14.9549 21.8277 14.9254 21.6334 14.8568 21.4516C14.7882 21.2699 14.682 21.1048 14.5452 20.9673C14.4084 20.8299 14.2441 20.7231 14.0633 20.6542C13.8824 20.5852 13.689 20.5556 13.4959 20.5672C13.2403 20.5284 12.9791 20.5495 12.7329 20.6288C12.4867 20.7081 12.262 20.8434 12.0763 21.0243C11.8907 21.2053 11.7492 21.4268 11.6628 21.6717C11.5764 21.9166 11.5474 22.1783 11.5782 22.4363V22.7418H8.77753V22.4363C8.77753 19.5272 11.0209 18.1309 13.4308 18.1309C15.8407 18.1309 17.8381 19.44 17.8742 22.0218C17.8286 23.2039 17.3788 24.3341 16.6006 25.2218Z" fill="#847fd8"/>
<path d="M24.8305 31.9999C23.9279 32.0242 23.0301 31.8595 22.1941 31.5165C21.3582 31.1734 20.6023 30.6595 19.9746 30.0072L21.5595 28.1454C22.4604 28.9494 23.6257 29.3898 24.8305 29.3817C26.068 29.3817 27.0016 28.6981 27.0016 27.5926C27.0016 26.3563 26.068 25.9781 24.447 25.9781H23.6582V23.5708H24.8305C26.068 23.5708 26.6904 23.1563 26.6904 21.9854C26.6904 21.1635 25.8292 20.6108 24.7943 20.6108C24.3127 20.5694 23.8276 20.6239 23.3669 20.7712C22.9062 20.9184 22.4789 21.1556 22.1095 21.469L20.6621 19.5417C21.8796 18.5008 23.4434 17.9605 25.0404 18.029C27.3128 18.029 29.6141 19.4035 29.6141 21.6654C29.6499 22.2943 29.4816 22.918 29.1345 23.4426C28.7874 23.9672 28.2801 24.3644 27.6891 24.5744C28.3611 24.7432 28.9544 25.1402 29.3685 25.6982C29.7827 26.2562 29.9921 26.9408 29.9615 27.6363C29.9976 30.1454 28.0003 31.9999 24.8305 31.9999Z" fill="#847fd8"/>
<path d="M36.3644 10.3928C36.1099 7.55683 34.8103 4.91878 32.7203 2.99609C30.6304 1.07341 27.9011 0.00485316 25.0677 3.63515e-05C24.7801 -0.00599469 24.4925 0.00615049 24.2065 0.0364C21.6543 0.225635 19.241 1.2774 17.3593 3.0205C15.4776 4.7636 14.2384 7.09541 13.8433 9.6364C13.3125 9.00105 12.651 8.48892 11.9042 8.13529C11.1575 7.78167 10.3434 7.59497 9.5179 7.58806C8.69245 7.58115 7.87531 7.75419 7.12282 8.09525C6.37032 8.43632 5.70036 8.9373 5.15911 9.56367C4.24285 10.6481 3.75369 12.0323 3.78411 13.4546C3.76988 13.5339 3.76988 13.6152 3.78411 13.6946C3.78411 13.9511 3.88552 14.1971 4.06602 14.3785C4.24653 14.5599 4.49134 14.6619 4.74661 14.6619C5.00189 14.6619 5.2467 14.5599 5.42721 14.3785C5.60771 14.1971 5.70911 13.9511 5.70911 13.6946C5.70064 13.588 5.67875 13.4829 5.64398 13.3819C5.60238 12.3687 5.95822 11.3796 6.63494 10.6274C7.31166 9.87528 8.25516 9.42017 9.2624 9.36004H9.56635C10.5488 9.35988 11.4944 9.73576 12.2109 10.4112C12.9274 11.0867 13.361 12.0111 13.4236 12.9964V13.0909H13.4598V13.2291C13.4598 13.532 13.5795 13.8224 13.7926 14.0365C14.0056 14.2506 14.2946 14.3709 14.596 14.3709C14.8973 14.3709 15.1863 14.2506 15.3994 14.0365C15.6124 13.8224 15.7321 13.532 15.7321 13.2291C15.7498 13.1256 15.7498 13.0199 15.7321 12.9164C15.7321 12.64 15.667 12.3637 15.6308 12.0582C15.4595 9.54006 16.2864 7.05603 17.931 5.14841C19.5757 3.24079 21.9045 2.06453 24.4091 1.8764C24.65 1.85847 24.8919 1.85847 25.1328 1.8764C27.5134 1.88396 29.806 2.78186 31.5639 4.3952C33.3218 6.00854 34.4191 8.22175 34.642 10.6037L33.1946 10.7055L35.9085 14.6982L38.0144 10.3346L36.3644 10.3928Z" fill="#847fd8"/>
</g>
<defs>
<clipPath id="clip0">
<rect width="110" height="32" fill="#847fd8"/>
</clipPath>
</defs>
</svg>
