<svg width="110" height="32" viewBox="0 0 110 32" fill="none" xmlns="http://www.w3.org/2000/svg">
<path d="M77.8833 27.9198C77.8771 27.7249 77.943 27.5345 78.0684 27.3852C78.1433 27.3101 78.2334 27.2519 78.3328 27.2146C78.4321 27.1774 78.5383 27.1619 78.6441 27.1693C78.7459 27.1602 78.8484 27.1732 78.9447 27.2075C79.0409 27.2417 79.1287 27.2963 79.2019 27.3675C79.2751 27.4388 79.3321 27.525 79.3689 27.6204C79.4057 27.7157 79.4214 27.8178 79.4151 27.9198C79.419 28.0142 79.4037 28.1085 79.3701 28.1968C79.3365 28.2851 79.2854 28.3658 79.2198 28.4338C79.1422 28.5045 79.0514 28.5591 78.9526 28.5944C78.8538 28.6297 78.7489 28.645 78.6441 28.6394C78.5392 28.6462 78.434 28.6315 78.335 28.5961C78.236 28.5607 78.1453 28.5055 78.0684 28.4338C77.9425 28.2929 77.8762 28.1086 77.8833 27.9198Z" fill="#847fd8"/>
<path d="M88.7913 25.4832C88.7269 26.3911 88.3188 27.2404 87.6502 27.858C86.9395 28.4476 86.0331 28.7485 85.1109 28.701C84.5862 28.7212 84.0639 28.6205 83.5844 28.4065C83.1049 28.1926 82.681 27.8713 82.3455 27.4673C81.6195 26.5255 81.2548 25.3548 81.3175 24.1673V23.2318C81.3022 22.411 81.4671 21.5969 81.8006 20.8468C82.0924 20.1966 82.5722 19.6488 83.1782 19.2739C83.796 18.8952 84.5098 18.7025 85.2343 18.7187C86.1406 18.6761 87.0284 18.9855 87.7119 19.5823C88.3637 20.2151 88.7528 21.0705 88.8016 21.9776H87.5063C87.4598 21.3494 87.2026 20.7554 86.7763 20.2916C86.3468 19.9216 85.79 19.7335 85.224 19.7673C84.8528 19.751 84.4831 19.8247 84.1465 19.9823C83.81 20.1398 83.5165 20.3765 83.2913 20.672C82.7852 21.4373 82.5433 22.3471 82.6025 23.2627V24.1982C82.5564 25.0869 82.7901 25.9678 83.2707 26.7169C83.4731 27.0184 83.7496 27.2628 84.0736 27.4266C84.3977 27.5904 84.7584 27.6682 85.1212 27.6524C85.7061 27.6897 86.2852 27.5185 86.7558 27.1692C87.1982 26.7131 87.4673 26.1167 87.5165 25.4832H88.7913Z" fill="#847fd8"/>
<path d="M98.0123 24.0231C98.0301 24.8774 97.8654 25.7255 97.5291 26.511C97.2468 27.1771 96.7749 27.7455 96.1721 28.1456C95.5543 28.5242 94.8405 28.7169 94.116 28.7007C93.3897 28.7211 92.6737 28.5242 92.06 28.1353C91.4546 27.746 90.9759 27.1887 90.6824 26.5315C90.3407 25.7689 90.1688 24.941 90.1786 24.1054V23.4063C90.1639 22.5557 90.3285 21.7115 90.6618 20.9287C90.9517 20.2584 91.4303 19.6869 92.0394 19.2839C92.6606 18.9115 93.3712 18.7148 94.0955 18.7148C94.8197 18.7148 95.5304 18.9115 96.1515 19.2839C96.7645 19.6752 97.242 20.246 97.5188 20.9185C97.8542 21.7042 98.0189 22.5522 98.002 23.4063L98.0123 24.0231ZM96.7375 23.396C96.796 22.4597 96.5508 21.5295 96.0385 20.7437C95.8166 20.4431 95.5244 20.2015 95.1874 20.0402C94.8505 19.8788 94.479 19.8027 94.1058 19.8185C93.7356 19.8043 93.3677 19.8813 93.0343 20.0426C92.7009 20.2039 92.4122 20.4447 92.1936 20.7437C91.6818 21.496 91.4291 22.3947 91.474 23.3035V24.0231C91.425 24.9488 91.6697 25.8662 92.173 26.6446C92.3931 26.9518 92.6856 27.1997 93.0245 27.3665C93.3635 27.5333 93.7385 27.6138 94.116 27.6007C94.4861 27.6189 94.8549 27.5459 95.1901 27.3882C95.5253 27.2304 95.8166 26.9927 96.0385 26.696C96.542 25.9292 96.787 25.0214 96.7375 24.1054V23.396Z" fill="#847fd8"/>
<path d="M101.591 18.8525L104.767 26.7787L107.944 18.8525H109.599V28.5675H108.324V24.7843L108.437 20.6722L105.251 28.5367H104.274L101.087 20.6927L101.21 24.8049V28.5881H99.9355V18.8525H101.591Z" fill="#847fd8"/>
<path d="M71.0259 19.1402V3.4729H63.182L48.4399 19.4486L50.496 23.1495H40.2979L46.353 18.9449C50.5885 15.9944 51.7913 13.8047 51.7913 10.7206C51.7913 6.73178 47.9156 3 40.5652 3C38.1595 3 33.2147 3.50374 30.4081 6.83458C29.0695 8.44769 28.3706 10.4967 28.4446 12.5916H36.4633C36.4633 10.7617 36.9567 8.63364 39.8455 8.63364C41.9016 8.63364 43.3717 9.44579 43.3717 11.4402C43.3717 14.1542 41.0997 15.686 37.625 17.886C35.8053 19.0579 32.4848 21.0729 30.6549 22.2449L21.1866 3.4729H13.3633L17.2081 11.1009L25.5455 28.5776H33.8726V28.5159V28.5776H49.0156L52.7371 24.1673H63.5109V28.5776H71.0259V24.157H72.9895L76.8857 19.1402H71.0259ZM63.5007 19.1402H56.9007L63.5007 11.2757V19.1402Z" fill="#847fd8"/>
<g style="mix-blend-mode:multiply" opacity="0.6">
<path d="M33.8426 28.5671L30.666 22.2652L31.5912 21.6792L33.8426 28.5671Z" fill="#847fd8"/>
</g>
<path d="M10.5266 24.1362H2.63123L0.400391 28.5362H8.28544L10.5266 24.1362Z" fill="#847fd8"/>
<path d="M21.1863 3.47314H13.291L3.61719 21.8339H11.5125L21.1863 3.47314Z" fill="#847fd8"/>
<g style="mix-blend-mode:multiply" opacity="0.6">
<path d="M17.1777 11.1012L17.7432 12.304L21.1871 3.47314L17.1777 11.1012Z" fill="#847fd8"/>
</g>
<path d="M30.6562 22.2446L33.8123 28.5054L30.6562 22.2446Z" fill="#847fd8"/>
<g style="mix-blend-mode:multiply" opacity="0.15">
<path d="M11.5125 21.8339L14.2882 16.5703C10.6798 17.3927 7.59569 18.2255 5.13868 18.9759L3.61719 21.8339H11.5125Z" fill="#847fd8"/>
</g>
<g style="mix-blend-mode:multiply" opacity="0.15">
<path d="M25.515 28.5672H33.8421V28.5055L30.686 22.2448L26.728 14.4111C24.1168 14.7401 21.6495 15.1308 19.3262 15.5523L25.515 28.5672Z" fill="#847fd8"/>
</g>
<g style="mix-blend-mode:multiply" opacity="0.15">
<path d="M0.400391 28.5362H8.28544L10.5266 24.1362H2.63123L0.400391 28.5362Z" fill="#847fd8"/>
</g>
<g style="mix-blend-mode:multiply" opacity="0.15">
<path d="M37.6263 17.886C35.8067 19.0579 32.4862 21.0729 30.6562 22.2448L33.8123 28.5056V28.5673H49.017L52.7385 24.157H63.5123V28.5673H71.0273V24.157H72.9908L76.8871 19.1402H71.0273V16.6317C68.488 16.0252 65.9796 15.5215 63.502 15.1V19.1402H56.902L60.6544 14.6476C58.283 14.3118 55.9391 14.0445 53.6226 13.8458L48.4413 19.4486L50.4974 23.1495H40.2992L46.3544 18.9448C49.1404 17.0018 50.6105 15.3775 51.2992 13.6299C48.431 13.4448 45.6245 13.3523 42.9105 13.3626C42.0777 15.0177 40.1759 16.2719 37.6263 17.886Z" fill="#847fd8"/>
</g>
</svg>
