<svg width="204" height="36" viewBox="0 0 204 36" fill="none" xmlns="http://www.w3.org/2000/svg">
<path d="M73.8177 6.45178L72.0424 10.9977L77.7388 25.4365H66.4129L62.4953 35.5483H66.0882L68.7918 28.7259H79.0377L81.7306 35.5483H85.3835L73.8177 6.45178Z" fill="#847fd8"/>
<path d="M52.7647 27.3247L52.0871 28.2353C50.0111 30.9536 46.7682 32.5253 43.3482 32.4706C37.1753 32.4706 32.52 27.7518 32.52 21.4906C32.52 15.2294 37.0765 10.5106 43.1082 10.5106C46.3047 10.4615 49.3438 11.895 51.3388 14.3929L52.0235 15.247L54.7588 13.1965L54.0071 12.2823C51.3452 9.00254 47.3321 7.11684 43.1082 7.16116C35.1 7.16116 29.0294 13.327 28.9906 21.5012C28.9186 25.3084 30.3769 28.9853 33.0388 31.7082C36.024 34.5989 40.0923 36.0925 44.2387 35.8202C48.3852 35.5479 52.2232 33.535 54.8047 30.2788L55.5106 29.3718L52.7647 27.3247Z" fill="#847fd8"/>
<path d="M137.767 7.46118H134.287V35.5482H137.767V7.46118Z" fill="#847fd8"/>
<path d="M171.918 27.3247L171.24 28.2353C169.164 30.9536 165.921 32.5253 162.501 32.4706C156.328 32.4706 151.673 27.7518 151.673 21.4906C151.673 15.2294 156.229 10.5106 162.261 10.5106C165.458 10.4615 168.497 11.895 170.492 14.3929L171.176 15.247L173.912 13.1965L173.16 12.2823C170.498 9.00254 166.485 7.11684 162.261 7.16116C154.253 7.16116 148.182 13.327 148.144 21.5012C148.068 25.3081 149.522 28.9863 152.181 31.7118C155.166 34.6024 159.235 36.096 163.381 35.8237C167.528 35.5514 171.366 33.5386 173.947 30.2823L174.653 29.3753L171.918 27.3247Z" fill="#847fd8"/>
<path d="M108.466 25.2177L94.1718 6.45178V12.12L104.975 26.273L108.42 30.7941L111.318 26.9859L119.255 16.6694V35.5483H122.756V6.45531L108.466 25.2177Z" fill="#847fd8"/>
<path d="M94.1718 21.7129V35.5482H97.6765V26.287L94.1718 21.7129Z" fill="#847fd8"/>
<path d="M11.3224 6.45178L9.54706 10.9977L15.2435 25.4365H3.91765L0 35.5483H3.59294L6.3 28.7259H16.5424L19.2353 35.5483H22.8882L11.3224 6.45178Z" fill="#847fd8"/>
<path d="M192.229 6.45178L190.454 10.9977L196.147 25.4365H184.821L180.904 35.5483H184.496L187.204 28.7259H197.449L200.142 35.5483H203.795L192.229 6.45178Z" fill="#847fd8"/>
<path d="M79.2106 0L76.6059 4.36588H74.6259L76.3235 0H79.2106Z" fill="#847fd8"/>
</svg>
