<svg height="36" viewBox="0 0 140 36" width="140" xmlns="http://www.w3.org/2000/svg"><path d="m140 0v36h-114.487a20.75 20.75 0 0 0 12.86-19.47 20.757 20.757 0 0 0 -8.485-16.53zm-139.978 0 17.977.002c9.953 0 18.023 8.058 18.023 17.999 0 9.94-8.07 17.999-18.023 17.999l-17.977-.002zm94.26 9.562c0-.53-.179-.976-.534-1.34a1.78 1.78 0 0 0 -1.327-.548c-.527 0-.966.184-1.311.548-.347.364-.519.81-.519 1.34 0 .527.172.975.519 1.34.345.364.784.545 1.311.545.53 0 .971-.181 1.327-.546.355-.364.534-.812.534-1.339zm-17.598 11.468v2.704a4.365 4.365 0 0 1 -.933.754c-.29.194-.622.369-1 .525-.379.156-.77.233-1.178.233-.465 0-.89-.156-1.278-.465-.387-.31-.581-.756-.581-1.338 0-.523.169-.944.507-1.263.34-.32.765-.562 1.28-.727a8.03 8.03 0 0 1 1.628-.336 15.61 15.61 0 0 1 1.555-.087zm.29 6.541h3.021v-9.33c0-1.59-.43-2.825-1.292-3.706-.86-.882-2.099-1.322-3.706-1.322-.638 0-1.283.077-1.931.232-.65.156-1.227.33-1.73.524-.62.212-1.201.455-1.744.726l.784 2.092c.407-.174.824-.328 1.25-.463.369-.118.78-.229 1.236-.335.455-.106.916-.16 1.38-.16.91 0 1.545.232 1.903.698.359.464.539 1.16.539 2.092v.26c-.794 0-1.668.05-2.616.145-.95.099-1.837.307-2.66.626a5.399 5.399 0 0 0 -2.078 1.41c-.561.62-.842 1.463-.842 2.528 0 .678.121 1.29.362 1.832.242.543.557.998.946 1.366.388.368.822.649 1.306.842.484.195.97.292 1.454.292.542 0 1.036-.083 1.482-.248a5.815 5.815 0 0 0 1.178-.581 6.88 6.88 0 0 0 .872-.668c.242-.223.43-.402.566-.539h.058l.262 1.688zm13.717 0h3.489v-14.01h-3.49v14.01zm23.84-19.008c0-.53-.176-.976-.533-1.34a1.778 1.778 0 0 0 -1.326-.548c-.528 0-.966.184-1.312.548-.347.364-.52.81-.52 1.34 0 .527.173.975.52 1.34.346.364.784.545 1.312.545.529 0 .972-.181 1.326-.546.357-.364.534-.812.534-1.339zm-3.59 19.008h3.489v-14.01h-3.49v14.01zm13.999-6.54v2.703c-.271.291-.58.542-.929.754a5.764 5.764 0 0 1 -1.005.525 3.04 3.04 0 0 1 -1.175.233c-.466 0-.892-.156-1.28-.465-.387-.31-.581-.756-.581-1.338 0-.523.17-.944.508-1.263.34-.32.766-.562 1.28-.727a8.035 8.035 0 0 1 1.628-.336c.571-.058 1.09-.087 1.554-.087zm.29 6.54h3.024v-9.33c0-1.59-.431-2.825-1.294-3.706-.862-.882-2.098-1.322-3.706-1.322-.639 0-1.283.077-1.933.232-.649.156-1.225.33-1.728.524-.621.212-1.202.455-1.745.726l.786 2.092a13.52 13.52 0 0 1 1.249-.463c.368-.118.78-.229 1.235-.335s.915-.16 1.381-.16c.91 0 1.545.232 1.904.698.358.464.537 1.16.537 2.092v.26c-.794 0-1.666.05-2.616.145a10.25 10.25 0 0 0 -2.658.626 5.427 5.427 0 0 0 -2.08 1.41c-.56.62-.842 1.463-.842 2.528 0 .678.12 1.29.362 1.832.243.543.558.998.945 1.366.389.368.825.649 1.309.842.484.195.97.292 1.454.292.54 0 1.035-.083 1.482-.248a5.795 5.795 0 0 0 1.176-.581c.34-.223.631-.446.873-.668.24-.223.43-.402.567-.539h.057l.261 1.688zm-38.26-21.393h-3.486l-.001 21.383h3.486l.002-21.383zm-21.011 10.747-6.999.004v2.94h3.483v4.618c-.194.042-.416.08-.668.118a6.853 6.853 0 0 1 -.77.086c-.3.02-.634.03-1.004.03-.91 0-1.749-.174-2.513-.523a5.975 5.975 0 0 1 -1.976-1.438 6.595 6.595 0 0 1 -1.294-2.195c-.309-.852-.465-1.792-.465-2.82 0-1.085.18-2.068.538-2.95a6.503 6.503 0 0 1 1.496-2.252 6.747 6.747 0 0 1 2.253-1.438 7.53 7.53 0 0 1 2.776-.509c.524 0 1.004.023 1.439.073.435.048.818.102 1.148.16.368.076.716.146 1.046.203l.959-2.732c-.446-.155-.94-.291-1.483-.406a30.117 30.117 0 0 0 -1.67-.292c-.65-.096-1.381-.145-2.195-.145-1.376 0-2.678.237-3.908.713a9.613 9.613 0 0 0 -3.242 2.049c-.93.89-1.666 1.965-2.209 3.225-.541 1.26-.813 2.675-.813 4.243 0 1.57.242 2.985.726 4.243.484 1.26 1.154 2.335 2.006 3.227a8.695 8.695 0 0 0 3.008 2.049 9.64 9.64 0 0 0 3.706.713c.813 0 1.617-.073 2.412-.219a23.016 23.016 0 0 0 2.121-.481c.737-.21 1.434-.445 2.094-.696zm42.368 9.29-.959-1.803a4.087 4.087 0 0 1 -.931.318c-.29.078-.624.146-1.003.205-.377.058-.945.087-1.335.087-1.104 0-1.994-.38-2.673-1.135-.678-.755-1.018-1.753-1.018-2.993 0-.697.112-1.341.335-1.932.223-.59.527-1.106.916-1.54a4.047 4.047 0 0 1 1.394-1.017c.543-.244 1.232-.365 1.87-.365.29 0 .647.02.89.059.242.039.451.077.624.116l.583.145.9-2.354a23.228 23.228 0 0 0 -1.192-.378c-.369-.097-.776-.188-1.22-.277a7.43 7.43 0 0 0 -1.425-.13c-1.066 0-2.039.213-2.921.64a6.979 6.979 0 0 0 -2.267 1.73 8.001 8.001 0 0 0 -1.468 2.513 8.723 8.723 0 0 0 -.522 3.024c0 1.024.16 1.956.478 2.788a6.614 6.614 0 0 0 1.294 2.138 5.824 5.824 0 0 0 1.905 1.38 5.536 5.536 0 0 0 2.31.494c.716 0 1.403-.088 2.064-.262a12.921 12.921 0 0 0 1.743-.581 10.868 10.868 0 0 0 1.628-.87zm-85.084-16.879v.001c-.01.006-.294.188-.954.39-.766.234-2.036.492-3.966.527.04-1.917.3-3.182.533-3.94.183-.593.347-.88.377-.927a.308.308 0 0 0 .005-.009h-.005a1.354 1.354 0 1 0 -2.708 0h-.007l.008.015c.039.063.198.349.375.92.233.756.494 2.02.532 3.94-1.934-.037-3.208-.298-3.974-.531-.658-.203-.94-.385-.94-.385v.006l-.007-.007a1.362 1.362 0 0 0 0 2.723l.006-.003v.002s.282-.184.945-.386c.762-.234 2.027-.493 3.949-.53-.1 2.12-.476 3.341-.708 3.904-.144.336-.487.984-1.04 1.146l.002.003 2.218 15.995 2.206-15.995.002-.003c-.556-.162-.9-.815-1.043-1.152-.01-.02-.018-.04-.026-.059-.234-.587-.586-1.79-.68-3.838 1.918.038 3.186.296 3.95.53.656.2.941.38.95.385v.001a1.36 1.36 0 1 0 0-2.723z" fill="#847fd8"/></svg>