<svg width="110" height="32" viewBox="0 0 110 32" fill="none" xmlns="http://www.w3.org/2000/svg">
<path d="M66.4906 21.478C66.4025 21.4601 66.2403 21.4199 66.1302 21.3886C66.0201 21.3572 65.8035 21.3171 65.649 21.2996C65.4945 21.2819 65.2422 21.2207 65.0884 21.1634C64.4469 20.9241 64.128 20.7828 64.128 20.7378C64.128 20.7114 64.074 20.69 64.0079 20.69C63.9418 20.69 63.8216 20.6399 63.7408 20.5788C63.66 20.5176 63.4193 20.3531 63.206 20.2133C61.5458 19.1249 60.4704 17.1673 60.6336 15.5304C60.7545 14.3179 60.942 13.77 61.5166 12.951C61.6975 12.6931 61.895 12.4053 61.9555 12.3114C62.0835 12.1129 63.7736 10.7741 63.8963 10.7741C63.9418 10.7741 64.1297 10.6947 64.3138 10.5976C65.1228 10.1709 65.5872 10.0785 67.1513 10.0328C67.8101 10.0132 68.1324 10.0263 68.1324 10.0713C68.1324 10.1083 68.2549 10.1385 68.4047 10.1385C68.6679 10.1385 69.7298 10.5031 70.2763 10.7812C70.6366 10.9645 70.8902 10.903 71.0963 10.5824C71.2477 10.3468 71.5007 10.2444 71.6039 10.3769C71.67 10.4618 71.6945 14.045 71.6296 14.1271C71.5625 14.2118 71.3258 14.2283 71.0425 14.1679C70.9001 14.1376 70.8529 14.0556 70.7777 13.7079C70.6846 13.2775 70.4036 12.5713 70.2818 12.4617C70.2449 12.4286 70.2147 12.3591 70.2147 12.3075C70.2147 12.1552 69.4966 11.3585 69.1827 11.1625C68.587 10.7905 68.2814 10.7103 67.4748 10.714C66.5649 10.7181 66.1946 10.8234 65.6706 11.2262C65.1124 11.6553 64.7145 12.3222 64.4994 13.1895C63.9327 15.4741 64.2424 18.6217 65.1456 19.7573C65.4545 20.1456 66.0093 20.5261 66.4503 20.652C67.0582 20.8255 68.1853 20.775 68.7735 20.5479C69.3307 20.3328 69.6453 20.1258 70.0542 19.7051C70.4159 19.333 70.8058 18.5526 70.8961 18.0204C70.9964 17.4283 71.0431 17.3744 71.4358 17.3969L71.7764 17.4165L71.7721 17.862C71.7696 18.1071 71.7192 18.4503 71.6597 18.6248C71.5287 19.0087 71.168 19.756 71.0924 19.8001C71.0624 19.8175 70.9792 19.9177 70.9075 20.0226C70.8358 20.1275 70.6596 20.3167 70.5159 20.4431C70.2282 20.6962 69.1732 21.2621 68.989 21.2621C68.925 21.2621 68.7379 21.3068 68.5731 21.3614C68.2736 21.4607 66.8104 21.5427 66.4905 21.478H66.4906ZM87.3133 21.4182C85.7175 21.0222 85.0129 20.6935 84.05 19.8955C82.8976 18.9405 82.2602 17.8888 81.989 16.4948C81.7254 15.1398 82.2201 13.5415 83.2797 12.325C83.7249 11.8138 84.8221 10.9571 85.2026 10.8234C85.3284 10.7792 85.4313 10.7215 85.4313 10.695C85.4313 10.6687 85.4708 10.647 85.519 10.647C85.5673 10.647 85.7024 10.5949 85.8193 10.5313C86.6178 10.0965 88.6853 9.85707 89.6116 10.0921C89.8185 10.1447 90.0092 10.1706 90.0353 10.1499C90.0614 10.1292 90.2345 10.1727 90.4199 10.2467C90.6054 10.3207 90.9294 10.4482 91.14 10.53C91.8226 10.7952 93.0147 11.5818 93.5183 12.0992C94.2069 12.8065 94.8047 13.9076 94.9584 14.7513C95.3172 16.7217 94.6188 18.497 92.9266 19.9158C92.1845 20.538 90.9328 21.1378 89.9162 21.3584C89.2354 21.5061 87.8004 21.5391 87.3133 21.4182ZM89.5165 20.6357C90.9041 20.1149 91.4667 18.7136 91.4597 15.7956C91.4525 12.7819 90.879 11.3088 89.5284 10.8346C89.0802 10.6773 87.8724 10.6577 87.629 10.8039C87.5434 10.8552 87.413 10.8981 87.3391 10.8992C87.1266 10.9028 86.5247 11.4035 86.2774 11.7832C85.7992 12.5171 85.5162 14.0148 85.5131 15.8274C85.5115 16.8147 85.6782 18.2423 85.859 18.7889C86.2296 19.9096 86.9401 20.5915 87.914 20.7611C88.3722 20.8409 89.1271 20.7818 89.5165 20.6357ZM0.678645 21.2049C0.623652 21.1907 0.55218 21.148 0.519817 21.1095C0.424647 20.9964 0.450047 20.6476 0.558636 20.5764C0.613695 20.5403 0.986019 20.5129 1.38602 20.5154C1.78602 20.5181 2.15542 20.4994 2.20691 20.4742C2.32128 20.4181 2.34086 11.1774 2.22691 11.0345C2.17483 10.9692 1.95501 10.9434 1.40724 10.9383C0.995568 10.9345 0.613694 10.9086 0.558634 10.8807C0.447409 10.8246 0.425186 10.4693 0.525081 10.3444C0.575374 10.2815 1.33002 10.2678 4.02768 10.2808L7.46618 10.2974L7.49042 10.5958C7.51458 10.8934 7.51379 10.8944 7.22371 10.9376C7.06369 10.9615 6.66705 10.9673 6.34228 10.9506C5.98602 10.9324 5.71856 10.9468 5.66797 10.9871C5.57008 11.0648 5.54653 20.4948 5.64421 20.5061C6.18319 20.5686 6.84221 20.542 7.42219 20.4346C8.25964 20.2793 8.37911 20.2346 8.99958 19.844C9.78184 19.3517 10.2018 18.5308 10.2375 17.4244C10.2524 16.9618 10.3211 16.876 10.6767 16.876C11.1148 16.876 11.0901 16.6566 11.0441 20.1327L11.0301 21.1965L5.90437 21.2134C3.08523 21.2226 0.733662 21.2188 0.678669 21.2047L0.678645 21.2049ZM12.0242 21.1981C11.8106 21.1687 11.7889 21.1412 11.7669 20.8728L11.7429 20.5796L12.153 20.5483C12.9523 20.4873 13.3929 20.0976 13.9056 18.9977C14.3493 18.046 14.714 17.2882 14.8654 17.0032C14.949 16.8459 15.0722 16.6028 15.1392 16.4629C15.2939 16.1402 15.9754 14.7384 16.499 13.6662C16.7209 13.2117 16.9507 12.7497 17.0096 12.6395C17.0685 12.5294 17.1167 12.4203 17.1167 12.3972C17.1167 12.3741 17.2006 12.2068 17.3032 12.0255C17.4058 11.8441 17.5556 11.5384 17.6362 11.3461C17.7168 11.1538 17.8651 10.8463 17.9659 10.6628L18.149 10.3291H18.7843C19.4698 10.3291 19.5024 10.3429 19.6803 10.7105C19.7395 10.8328 19.8673 11.0759 19.9643 11.2507C20.0613 11.4256 20.2725 11.8403 20.4336 12.1724C20.5947 12.5045 20.7593 12.8335 20.7995 12.9034C20.8396 12.9733 20.9851 13.2593 21.1228 13.539C21.2605 13.8187 21.421 14.119 21.4793 14.2065C21.5377 14.2938 21.8389 14.8659 22.1487 15.4777C23.4747 18.0965 24.3837 19.8467 24.5308 20.0641C24.5936 20.1569 24.6449 20.2774 24.6449 20.332C24.6449 20.4997 24.9333 20.5661 25.5837 20.5482L26.2066 20.5311V20.8489V21.1667L25.7662 21.1985C25.5239 21.2159 23.9657 21.2224 22.3034 21.2129L19.2812 21.1955L19.2314 21.038C19.204 20.9515 19.2031 20.8125 19.2295 20.7293C19.2743 20.5877 19.3254 20.5752 20.0332 20.5331C20.4859 20.5062 20.803 20.4585 20.8239 20.4142C20.8715 20.3132 19.9337 18.4221 19.7391 18.2268C19.6792 18.1668 19.1276 18.1474 17.4762 18.1474C14.9422 18.1474 15.089 18.1108 14.7996 18.8148C14.699 19.0595 14.5479 19.3807 14.464 19.5285C14.3526 19.7246 14.3254 19.8677 14.3636 20.0573C14.4361 20.4169 14.6569 20.5185 15.3807 20.5255L15.9555 20.5309L15.9799 20.8335C15.9965 21.039 15.9708 21.1459 15.8998 21.1666C15.7537 21.2093 12.3092 21.2373 12.0243 21.198L12.0242 21.1981ZM19.2896 17.3675C19.3326 17.3064 19.2482 17.0756 19.0487 16.7093C18.8798 16.399 18.496 15.6303 18.1958 15.001C17.8956 14.3717 17.6157 13.8211 17.5738 13.7774C17.4359 13.6337 17.2908 13.6941 17.1928 13.9363C17.0718 14.2353 16.2612 15.889 16.1101 16.1451C15.86 16.5692 15.595 17.1607 15.595 17.2949C15.595 17.3734 15.6401 17.4523 15.6952 17.4703C15.7502 17.4885 16.5666 17.4937 17.5093 17.4823C18.9197 17.4652 19.235 17.4449 19.2896 17.3675V17.3675ZM46.2645 21.1698C46.1562 21.0838 46.1703 20.6662 46.2845 20.5755C46.3374 20.5335 46.5266 20.498 46.705 20.4965C47.0917 20.4933 47.4571 20.3471 47.7301 20.0861C47.9366 19.8887 48.0223 19.7376 48.5953 18.5605C48.7825 18.176 48.9663 17.8342 49.0036 17.801C49.041 17.7677 49.0716 17.6887 49.0716 17.6253C49.0716 17.5619 49.1067 17.4604 49.1497 17.3996C49.265 17.2366 49.5733 16.6219 49.9542 15.7955C50.1395 15.3935 50.3591 14.9446 50.4422 14.7979C50.5253 14.6512 50.5932 14.5114 50.5932 14.4871C50.5932 14.463 50.8143 13.9965 51.0844 13.4507C51.6902 12.2269 51.661 12.2848 51.9031 11.8228C52.013 11.6131 52.2185 11.1912 52.3598 10.8853L52.6167 10.3291H53.277C53.9712 10.3291 54.0477 10.3567 54.1578 10.6469C54.1909 10.7343 54.2841 10.9202 54.3649 11.06C54.4456 11.1999 54.7442 11.772 55.0283 12.3313C55.3125 12.8907 55.6427 13.5343 55.762 13.7615C56.0853 14.3771 56.0828 14.3722 56.4778 15.1599C56.6794 15.5619 56.8784 15.9481 56.9201 16.018C56.9617 16.0879 57.0666 16.2917 57.1531 16.4709C57.2396 16.6501 57.3793 16.9218 57.4636 17.0748C57.5479 17.2277 57.6993 17.5244 57.8 17.7342C57.9008 17.944 58.0299 18.2014 58.087 18.3063C58.144 18.4112 58.3385 18.783 58.5191 19.1326C58.6997 19.4822 58.9004 19.8622 58.965 19.977C59.0296 20.0918 59.0825 20.227 59.0825 20.2774C59.0825 20.4613 59.4197 20.5542 60.0436 20.5424L60.6442 20.5309L60.6684 20.8653L60.6927 21.1997L57.2247 21.1832L53.7567 21.1666L53.7315 20.9238C53.6926 20.5492 53.8094 20.4849 54.4724 20.5155C55.3979 20.5584 55.4527 20.5128 55.153 19.951C54.945 19.561 54.8906 19.455 54.7165 19.1008C54.4692 18.5977 54.3514 18.3722 54.2848 18.2745C54.2299 18.1939 53.8752 18.1765 51.9938 18.1622C49.5308 18.1434 49.538 18.1424 49.4266 18.5512C49.3966 18.6612 49.3059 18.8656 49.2252 19.0054C48.7718 19.7901 48.7463 20.1954 49.1346 20.4396C49.3167 20.5541 49.4248 20.5711 49.8015 20.5445C50.0488 20.5271 50.2981 20.5358 50.3554 20.5638C50.4699 20.62 50.4796 21.0597 50.3682 21.1481C50.2719 21.2245 46.3594 21.2451 46.2645 21.1698L46.2645 21.1698ZM53.7817 17.3408C53.7954 17.2642 53.6242 16.8508 53.4012 16.422C53.1783 15.9933 52.9959 15.6169 52.9959 15.5856C52.9959 15.5543 52.9444 15.4386 52.8815 15.3284C52.8186 15.2182 52.6113 14.8072 52.421 14.415C52.2306 14.0227 52.034 13.7009 51.9841 13.6999C51.9017 13.6971 51.4742 14.3292 51.4742 14.4527C51.4742 14.4813 51.4238 14.5878 51.3622 14.6893C51.3006 14.7908 50.9743 15.4268 50.637 16.1026C50.1411 17.0964 50.0424 17.3491 50.1209 17.4242C50.2018 17.5016 50.5132 17.514 51.9873 17.4985C53.7386 17.4803 53.757 17.4787 53.7817 17.3408ZM33.0894 21.0472C33.0631 20.964 33.0534 20.8138 33.0679 20.7135C33.0935 20.5354 33.1058 20.5309 33.579 20.5274C34.1558 20.5231 34.415 20.3992 34.6308 20.0245C34.766 19.7895 34.776 19.5016 34.776 15.8293V11.8864L34.5965 11.6199C34.3711 11.2852 33.961 11.0333 33.5621 10.9846C33.3928 10.9643 33.2129 10.9213 33.1622 10.8898C33.0589 10.8256 33.0377 10.453 33.1305 10.3338C33.176 10.2754 33.802 10.2568 35.6653 10.2585L38.1396 10.2612L38.4045 10.5009C38.5502 10.6327 38.7984 10.8984 38.956 11.0912C39.588 11.8646 39.826 12.144 39.9202 12.2235C40.0168 12.3051 40.5441 12.9063 40.7024 13.1154C40.7465 13.1735 40.877 13.3214 40.9925 13.4439C41.108 13.5664 41.4684 13.9774 41.7934 14.3572C42.1184 14.737 42.4924 15.1689 42.6245 15.317C42.7567 15.4651 42.9339 15.6691 43.0183 15.7706C43.62 16.4932 43.7444 16.6223 43.8392 16.6223C44.0089 16.6223 43.9947 11.6693 43.8242 11.4076C43.6531 11.1449 43.1249 10.9451 42.5845 10.9387L42.144 10.9335L42.1198 10.5998L42.0956 10.2661L43.9017 10.2604C44.8951 10.2571 45.816 10.2547 45.9481 10.2547C46.0803 10.2547 46.2244 10.2574 46.2685 10.2604C46.3125 10.2636 46.3486 10.4061 46.3486 10.5772C46.3486 10.91 46.278 10.9708 45.9431 10.9265C45.6686 10.8902 45.0611 11.1574 44.8469 11.4085L44.6667 11.6198V16.4094V21.199H44.0326C43.6838 21.199 43.3408 21.1814 43.2703 21.16C43.1998 21.1385 42.8689 20.8025 42.535 20.4132C42.2011 20.0239 41.8234 19.5909 41.6958 19.4511C41.3103 19.0287 40.7424 18.3454 40.7424 18.3038C40.7424 18.2823 40.6205 18.1455 40.4715 17.9998C40.3225 17.8541 39.9213 17.4059 39.5801 17.0039C39.2388 16.6018 38.9373 16.2586 38.91 16.2411C38.8827 16.2237 38.6442 15.9519 38.3799 15.6373C37.4737 14.5585 36.3142 13.2218 36.257 13.1901C36.2256 13.1727 36.1419 13.0725 36.0711 12.9676C36.0002 12.8627 35.8693 12.7054 35.7802 12.618C35.6427 12.4833 35.606 12.4736 35.5386 12.5544C35.4885 12.6146 35.4587 13.9632 35.4579 16.2087C35.4568 19.4381 35.4695 19.7921 35.5951 20.0333C35.7778 20.3837 36.0792 20.5187 36.7288 20.541C37.2822 20.56 37.3821 20.6148 37.3419 20.8773C37.3282 20.9669 37.3129 21.0759 37.3078 21.1196C37.3008 21.1809 36.8243 21.199 35.2179 21.199H33.1372L33.0894 21.0478L33.0894 21.0472ZM73.5787 21.0404C73.4904 20.8562 73.5977 20.5656 73.7565 20.5583C73.8127 20.5556 74.118 20.5556 74.435 20.5627C75.4475 20.5779 75.3403 21.1503 75.3403 15.7324C75.3403 10.2917 75.471 10.9016 74.3044 10.9016C73.7168 10.9016 73.5764 10.8832 73.5683 10.8063C73.5628 10.7539 73.5517 10.6752 73.5436 10.6315C73.5355 10.5878 73.5531 10.4948 73.5828 10.4249C73.6352 10.3012 73.7262 10.2969 76.9747 10.266L80.3128 10.2342L80.3555 10.3696C80.379 10.444 80.3865 10.587 80.372 10.6874L80.3457 10.8698L79.5685 10.9016C79.141 10.919 78.7565 10.962 78.714 10.997C78.6662 11.0363 78.6278 12.8356 78.6133 15.7097C78.5945 19.4607 78.6102 20.3783 78.6945 20.4589C78.7735 20.5344 78.9875 20.5632 79.5723 20.5769L80.3457 20.5951V20.8812V21.1672L77.0004 21.1838L73.6551 21.2004L73.5787 21.0408L73.5787 21.0404ZM96.2177 21.1573C96.1263 21.0848 96.1566 20.6372 96.2562 20.5883C96.3075 20.5633 96.5163 20.538 96.7204 20.5323C96.9245 20.5266 97.2028 20.4697 97.3388 20.4059C97.8553 20.1638 97.8424 20.279 97.846 15.8677C97.8479 13.5532 97.818 11.807 97.7748 11.717C97.5864 11.3236 97.0473 10.9941 96.5234 10.9523C96.289 10.9335 96.2831 10.9247 96.2831 10.5893V10.2454L98.8059 10.2568C101.094 10.2674 101.338 10.2786 101.432 10.3783C101.699 10.6639 103.206 12.4095 103.489 12.7613C103.664 12.9792 103.88 13.2241 103.969 13.3055C104.059 13.3869 104.42 13.7927 104.772 14.2074C105.125 14.6219 105.732 15.3349 106.121 15.7916C106.511 16.2483 106.88 16.622 106.942 16.622C107.037 16.622 107.055 16.2253 107.055 14.0954C107.055 11.7355 107.044 11.5558 106.904 11.373C106.716 11.1283 106.27 10.9563 105.747 10.9267C105.525 10.9142 105.309 10.876 105.266 10.842C105.181 10.7745 105.172 10.4334 105.252 10.3301C105.284 10.2893 106.06 10.2657 107.371 10.2657C109.635 10.2657 109.538 10.2486 109.538 10.6445C109.538 10.8333 109.357 11.0018 109.225 10.9368C109.07 10.8607 108.418 11.0454 108.119 11.2505L107.816 11.4588L107.773 16.3128C107.749 18.9825 107.722 21.174 107.713 21.1827C107.703 21.1914 107.394 21.1987 107.024 21.1987C106.354 21.1987 106.353 21.1987 106.143 20.9805C106.028 20.8605 105.934 20.7429 105.934 20.7192C105.934 20.6955 105.797 20.5434 105.631 20.3812C105.355 20.1124 104.75 19.4176 104.652 19.2579C104.63 19.2217 104.421 18.9786 104.187 18.7176C103.953 18.4566 103.646 18.1061 103.506 17.9389C102.943 17.2683 101.946 16.1214 101.549 15.6888C101.318 15.4367 101.128 15.2117 101.128 15.1886C101.128 15.1655 101.026 15.0425 100.9 14.9151C100.654 14.6656 99.6371 13.4914 99.2488 13.0087C98.9608 12.6506 98.7429 12.4558 98.6833 12.5031C98.659 12.5227 98.6391 14.1999 98.6391 16.2309C98.6391 20.4146 98.6104 20.2192 99.2588 20.4469C99.5096 20.535 99.747 20.5673 100.034 20.5525L100.448 20.5313V20.8492V21.167L98.36 21.1841C97.2118 21.1936 96.2478 21.1814 96.2177 21.1577V21.1573Z" fill="white"/>
</svg>
