<svg width="100" height="35" viewBox="0 0 100 35" fill="none" xmlns="http://www.w3.org/2000/svg">
<rect width="23.1289" height="21.4156" fill="#9E98F6"/>
<path d="M15.1685 13.5346C14.3142 13.5346 13.5981 13.6602 13.0201 13.9115C12.4422 14.1376 11.9648 14.4517 11.5878 14.8538C11.2361 15.2558 10.9722 15.7207 10.7963 16.2483C10.6204 16.776 10.4948 17.3288 10.4194 17.9068C10.3692 18.2334 10.3315 18.6857 10.3063 19.2637C10.3063 19.8416 10.3063 20.4447 10.3063 21.0729C10.3063 21.6759 10.3189 22.279 10.344 22.8821C10.3692 23.46 10.3943 23.9123 10.4194 24.2389C10.4697 24.8169 10.5827 25.3697 10.7586 25.8974C10.9597 26.4251 11.2361 26.8899 11.5878 27.292C11.9648 27.694 12.4422 28.0207 13.0201 28.2719C13.6232 28.4981 14.3393 28.6112 15.1685 28.6112C15.8219 28.6112 16.4375 28.5358 17.0154 28.385C17.5934 28.2343 18.0959 27.9955 18.5231 27.6689C18.9503 27.3422 19.2895 26.915 19.5408 26.3874C19.792 25.8597 19.9177 25.2189 19.9177 24.4651H16.7516C16.4752 24.4651 16.2365 24.3646 16.0354 24.1636C15.8344 23.9625 15.7339 23.7238 15.7339 23.4474V19.4521C15.7339 19.1757 15.8344 18.937 16.0354 18.736C16.2365 18.535 16.4752 18.4345 16.7516 18.4345H25.8729C26.1493 18.4345 26.3881 18.535 26.5891 18.736C26.7901 18.937 26.8906 19.1757 26.8906 19.4521V24.2766C26.8906 25.8848 26.5891 27.3297 25.986 28.6112C25.3829 29.8927 24.5537 30.9857 23.4984 31.8903C22.443 32.7698 21.1992 33.4482 19.7669 33.9257C18.3598 34.4031 16.827 34.6418 15.1685 34.6418C13.3594 34.6418 11.7386 34.378 10.3063 33.8503C8.89919 33.2975 7.69306 32.5562 6.68795 31.6265C5.68284 30.6968 4.90388 29.6163 4.35107 28.385C3.82339 27.1286 3.52186 25.8094 3.44648 24.4274C3.39622 23.3972 3.37109 22.2916 3.37109 21.1105C3.37109 19.9295 3.39622 18.7988 3.44648 17.7183C3.49673 16.3363 3.79826 15.0296 4.35107 13.7984C4.90388 12.542 5.67028 11.449 6.65026 10.5192C7.65536 9.5895 8.87406 8.8608 10.3063 8.33312C11.7386 7.78031 13.3594 7.50391 15.1685 7.50391C16.9275 7.50391 18.5105 7.76775 19.9177 8.29543C21.3248 8.79798 22.5184 9.4513 23.4984 10.2554C24.4784 11.0343 25.2447 11.9013 25.7976 12.8561C26.3504 13.7858 26.6519 14.6779 26.7022 15.5322C26.7273 15.7584 26.6519 15.9594 26.476 16.1353C26.3001 16.286 26.0991 16.3614 25.8729 16.3614H20.86C20.483 16.3614 20.1815 16.2483 19.9554 16.0222C19.7543 15.796 19.5533 15.5699 19.3523 15.3437C19.0005 14.8914 18.5231 14.4768 17.92 14.0999C17.317 13.723 16.3998 13.5346 15.1685 13.5346Z" fill="black"/>
<path d="M44.3771 14.6653C44.6535 14.6653 44.8922 14.7658 45.0933 14.9668C45.2943 15.1679 45.3948 15.4066 45.3948 15.683V19.4898C45.3948 19.7662 45.2943 20.0049 45.0933 20.206C44.8922 20.407 44.6535 20.5075 44.3771 20.5075H40.9472C38.6354 20.5075 37.4796 21.6634 37.4796 23.9751V33.2472C37.4796 33.5236 37.3791 33.7623 37.178 33.9634C36.977 34.1644 36.7383 34.2649 36.4619 34.2649H31.7128C31.4364 34.2649 31.1976 34.1644 30.9966 33.9634C30.7956 33.7623 30.6951 33.5236 30.6951 33.2472V15.683C30.6951 15.4066 30.7956 15.1679 30.9966 14.9668C31.1976 14.7658 31.4364 14.6653 31.7128 14.6653H36.085C36.3614 14.6653 36.6001 14.7658 36.8011 14.9668C37.0021 15.1679 37.1027 15.4066 37.1027 15.683V16.5499C37.6806 15.9971 38.3716 15.5448 39.1757 15.193C40.0049 14.8412 40.9849 14.6653 42.1156 14.6653H44.3771Z" fill="black"/>
<path d="M67.4859 23.0328C67.511 23.4097 67.5236 23.8997 67.5236 24.5028C67.5236 25.0807 67.511 25.5582 67.4859 25.9351C67.4356 27.1412 67.1592 28.2719 66.6567 29.3273C66.1541 30.3827 65.4631 31.3124 64.5836 32.1165C63.7041 32.8954 62.6362 33.5111 61.3798 33.9634C60.1486 34.4157 58.7666 34.6418 57.2338 34.6418C55.701 34.6418 54.3064 34.4157 53.05 33.9634C51.8187 33.5111 50.7634 32.8954 49.8839 32.1165C49.0044 31.3124 48.3134 30.3827 47.8109 29.3273C47.3083 28.2719 47.0319 27.1412 46.9817 25.9351C46.9565 25.5582 46.944 25.0807 46.944 24.5028C46.944 23.8997 46.9565 23.4097 46.9817 23.0328C47.0068 21.8267 47.2706 20.6959 47.7732 19.6406C48.2757 18.5852 48.9668 17.6681 49.8462 16.8891C50.7508 16.085 51.8187 15.4568 53.05 15.0045C54.3064 14.5271 55.701 14.2884 57.2338 14.2884C58.7666 14.2884 60.1486 14.5271 61.3798 15.0045C62.6362 15.4568 63.7041 16.085 64.5836 16.8891C65.4882 17.6681 66.1792 18.5852 66.6567 19.6406C67.1592 20.6959 67.4356 21.8267 67.4859 23.0328ZM53.7661 25.7466C53.8415 26.7015 54.1807 27.4553 54.7838 28.0081C55.412 28.5358 56.2287 28.7996 57.2338 28.7996C58.2389 28.7996 59.043 28.5358 59.646 28.0081C60.2742 27.4553 60.626 26.7015 60.7014 25.7466C60.7516 25.3697 60.7768 24.9425 60.7768 24.4651C60.7768 23.9877 60.7516 23.5605 60.7014 23.1836C60.626 22.2287 60.2742 21.4875 59.646 20.9598C59.043 20.407 58.2389 20.1306 57.2338 20.1306C56.2287 20.1306 55.412 20.407 54.7838 20.9598C54.1807 21.4875 53.8415 22.2287 53.7661 23.1836C53.7159 23.5605 53.6908 23.9877 53.6908 24.4651C53.6908 24.9425 53.7159 25.3697 53.7661 25.7466Z" fill="black"/>
<path d="M86.2801 14.6653C86.657 14.6653 86.946 14.7658 87.147 14.9668C87.348 15.1679 87.4862 15.3689 87.5616 15.5699L90.3508 24.1259L93.14 15.5699C93.2153 15.3689 93.3535 15.1679 93.5546 14.9668C93.7556 14.7658 94.0445 14.6653 94.4215 14.6653H99.0952C99.3465 14.6653 99.5601 14.7532 99.736 14.9291C99.9119 15.105 99.9998 15.3186 99.9998 15.5699C99.9998 15.6704 99.9873 15.7709 99.9621 15.8714L93.9692 33.3226C93.8938 33.5488 93.7556 33.7623 93.5546 33.9634C93.3787 34.1644 93.1023 34.2649 92.7253 34.2649H88.4285C88.0516 34.2649 87.7752 34.1644 87.5993 33.9634C87.4234 33.7623 87.2852 33.5488 87.1847 33.3226L84.5086 25.4074L81.8325 33.3226C81.732 33.5488 81.5938 33.7623 81.4179 33.9634C81.242 34.1644 80.9656 34.2649 80.5887 34.2649H76.2918C75.9149 34.2649 75.626 34.1644 75.4249 33.9634C75.249 33.7623 75.1234 33.5488 75.048 33.3226L69.0551 15.8714C69.0299 15.7709 69.0174 15.6704 69.0174 15.5699C69.0174 15.3186 69.1053 15.105 69.2812 14.9291C69.4571 14.7532 69.6707 14.6653 69.922 14.6653H74.5957C74.9726 14.6653 75.2616 14.7658 75.4626 14.9668C75.6636 15.1679 75.8018 15.3689 75.8772 15.5699L78.6664 24.1259L81.4556 15.5699C81.531 15.3689 81.6692 15.1679 81.8702 14.9668C82.0712 14.7658 82.3602 14.6653 82.7371 14.6653H86.2801Z" fill="black"/>
</svg>
