<svg width="110" height="19" viewBox="0 0 110 19" fill="none" xmlns="http://www.w3.org/2000/svg">
<g clip-path="url(#clip0)">
<path d="M75.6531 7.1561C75.3744 6.51217 74.9998 5.95041 74.5189 5.47535C74.041 4.9952 73.4775 4.62267 72.8304 4.35115C72.1869 4.07977 71.4933 3.94312 70.7593 3.94312C70.2606 3.94312 69.7828 4.00587 69.3244 4.12711C68.8685 4.2511 68.445 4.42671 68.0472 4.65667C67.6524 4.87892 67.2937 5.15374 66.9735 5.47535C66.6508 5.796 66.3777 6.14984 66.1442 6.54273C65.9157 6.93298 65.7366 7.3563 65.6107 7.81445C65.4824 8.27437 65.4194 8.75024 65.4194 9.2483C65.4194 9.74208 65.4824 10.2173 65.6107 10.6729C65.7366 11.1302 65.9157 11.5535 66.1442 11.9471C66.3777 12.3418 66.6508 12.6964 66.9735 13.0189C67.2937 13.3404 67.6524 13.6135 68.0472 13.8435C68.445 14.0725 68.8685 14.2499 69.3244 14.3745C69.7828 14.495 70.2606 14.5587 70.7593 14.5587C71.25 14.5587 71.7218 14.495 72.174 14.3745C72.6256 14.2499 73.0516 14.0725 73.4451 13.8435C73.8405 13.6135 74.198 13.3404 74.5189 13.0189C74.8409 12.6964 75.1165 12.3418 75.3457 11.9471C75.5749 11.5535 75.7551 11.1302 75.8816 10.6729C76.0106 10.2173 76.0754 9.74208 76.0754 9.2483C76.0754 8.4984 75.9354 7.80094 75.6531 7.1561Z" fill="#847fd8"/>
<path d="M67.4313 7.98796L69.5641 9.24612L67.4246 10.4764L68.0179 11.5039L70.155 10.2754V12.7417H71.3442V8.91441L68.0393 6.96729L67.4313 7.98796Z" fill="#847fd8"/>
<path d="M72.1625 8.9077V8.23132L71.5752 7.88226L73.1091 7.00244L73.7031 8.02428L72.1625 8.9077Z" fill="#847fd8"/>
<path d="M69.7834 6.83362L70.9751 7.5301V5.77197H69.7834V6.83362Z" fill="#847fd8"/>
<path d="M73.6945 10.5053L73.0877 11.5222L72.1619 10.9778V9.60583L73.6945 10.5053Z" fill="#847fd8"/>
<path d="M13.206 12.7841V7.96948C13.206 6.98639 12.7949 6.49524 11.9744 6.49524C11.4987 6.49524 11.0544 6.64734 10.6372 6.95168C10.2177 7.25607 9.89694 7.61107 9.67456 8.01171V14.5678H6.60391V7.96948C6.60391 6.98639 6.19276 6.49524 5.36959 6.49524C4.89394 6.49524 4.44966 6.64734 4.03082 6.95168C3.61473 7.25607 3.29206 7.61107 3.06986 8.01171V14.5678H0V4.14879H1.18897C1.82989 4.14879 2.29047 4.28138 2.56948 4.54422C2.84613 4.80801 3.01458 5.22811 3.06986 5.80972C3.89125 4.5789 5.06931 3.96191 6.60391 3.96191C8.06526 3.96191 9.00491 4.64143 9.42266 5.99647C9.79892 5.37441 10.3087 4.87999 10.9487 4.51213C11.5897 4.14783 12.307 3.96191 13.1039 3.96191C14.1344 3.96191 14.9217 4.28481 15.4623 4.92894C16.0044 5.57294 16.2794 6.48839 16.2794 7.67865V14.5678H15.1083C13.84 14.5678 13.206 13.9752 13.206 12.7841Z" fill="#847fd8"/>
<path d="M27.9801 4.14734V12.1395C27.9801 13.2325 28.152 14.0482 28.4847 14.5891H26.5628C25.545 14.5891 24.9721 14.0346 24.8497 12.929C23.9695 14.1446 22.8357 14.7532 21.4425 14.7532C20.256 14.7532 19.3437 14.3829 18.7018 13.6338C18.0628 12.8868 17.741 11.7946 17.741 10.3544V4.14734H18.9752C20.2434 4.14734 20.8765 4.74321 20.8765 5.93427V10.0634C20.8765 11.4193 21.4052 12.0965 22.4638 12.0965C23.5372 12.0965 24.3313 11.6348 24.8497 10.7077V4.14734H27.9801Z" fill="#847fd8"/>
<path d="M32.6867 1.78364V14.5677H29.5938V0H30.7837C32.0527 0 32.6867 0.592583 32.6867 1.78364Z" fill="#847fd8"/>
<path d="M33.3516 6.68183V4.14776L35.4428 4.19082L36.4036 0.620239H38.5359V4.2314L41.9409 4.14776V6.68183L38.5359 6.61925V11.0587C38.5359 11.8211 38.9333 12.2041 39.7255 12.2041C40.3555 12.2041 40.9334 12.0359 41.4619 11.7046C41.7555 12.2447 41.9011 12.7764 41.9011 13.303C41.9011 13.8279 41.6558 14.2031 41.1691 14.4239C40.6252 14.6715 39.8446 14.7959 38.8295 14.7959C37.7433 14.7959 36.9041 14.5345 36.3219 14.0105C35.7356 13.4814 35.4428 12.5617 35.4428 11.2464V6.6396L33.3516 6.68183Z" fill="#847fd8"/>
<path d="M45.9958 14.5677V5.93562C45.9958 4.74442 45.3643 4.14869 44.0953 4.14869H42.8637V14.5677H45.9958ZM43.0603 0.427568C43.4016 0.14965 43.8518 0.0117188 44.4059 0.0117188C44.965 0.0117188 45.4187 0.14965 45.7669 0.427568C46.1149 0.704935 46.2894 1.12586 46.2894 1.69308C46.2894 2.24508 46.1124 2.66175 45.7574 2.93816C45.3999 3.21539 44.9533 3.35319 44.4059 3.35319C43.8637 3.35319 43.4194 3.21539 43.0695 2.93816C42.7232 2.66175 42.5488 2.24508 42.5488 1.69308C42.5488 1.12586 42.7207 0.704935 43.0603 0.427568Z" fill="#847fd8"/>
<path d="M60.7949 12.7841V7.96948C60.7949 6.98639 60.3831 6.49524 59.5607 6.49524C59.0869 6.49524 58.6426 6.64734 58.2246 6.95168C57.8059 7.25607 57.4823 7.61107 57.2637 8.01171V14.5678H54.1903V7.96948C54.1903 6.98639 53.7792 6.49524 52.9579 6.49524C52.4837 6.49524 52.0377 6.64734 51.619 6.95168C51.2011 7.25607 50.8812 7.61107 50.6589 8.01171V14.5678H47.5857V4.14879H48.7754C49.4198 4.14879 49.8775 4.28138 50.1542 4.54422C50.4327 4.80801 50.6046 5.22811 50.6589 5.80972C51.4786 4.5789 52.6565 3.96191 54.1903 3.96191C55.6533 3.96191 56.5921 4.64143 57.015 5.99647C57.3853 5.37441 57.8968 4.87999 58.5369 4.51213C59.1779 4.14783 59.8954 3.96191 60.6911 3.96191C61.7204 3.96191 62.5076 4.28481 63.0496 4.92894C63.5953 5.57294 63.8673 6.48839 63.8673 7.67865V14.5678H62.697C61.4302 14.5678 60.7949 13.9752 60.7949 12.7841Z" fill="#847fd8"/>
<path d="M84.3591 12.7841V8.65319C84.3591 7.29818 83.7987 6.62033 82.684 6.62033C81.625 6.62033 80.7535 7.08441 80.0727 8.01171V14.5678H76.9365V4.14879H78.1899C78.8291 4.14879 79.2905 4.28138 79.568 4.54422C79.8509 4.80801 80.0147 5.22811 80.0727 5.80972C80.4339 5.29749 80.9265 4.86299 81.5529 4.50445C82.1835 4.14276 82.8985 3.96191 83.707 3.96191C84.9201 3.96191 85.8502 4.33636 86.5096 5.0836C87.1635 5.83084 87.4892 6.92387 87.4892 8.36334V14.5678H86.2572C84.9885 14.5678 84.3591 13.9752 84.3591 12.7841Z" fill="#847fd8"/>
<path d="M91.5688 8.36234H95.7641C95.7641 7.73852 95.5991 7.239 95.266 6.85608C94.9324 6.47645 94.4575 6.28707 93.8434 6.28707C92.535 6.28707 91.7729 6.97946 91.5688 8.36234ZM94.2821 12.3655C95.6639 12.3655 96.7553 11.9531 97.5644 11.1222C97.884 11.6462 98.0435 12.1958 98.0435 12.763C98.0435 13.1779 97.8162 13.582 97.3542 13.9683C97.0621 14.2033 96.638 14.3985 96.0806 14.5591C95.5239 14.7173 94.9324 14.7959 94.3017 14.7959C92.3125 14.7959 90.8361 14.3259 89.8846 13.3859C88.9306 12.4458 88.4521 11.1104 88.4521 9.37917C88.4521 7.69202 88.9178 6.35992 89.8418 5.38272C90.7683 4.40801 92.0956 3.92114 93.8226 3.92114C95.3394 3.92114 96.5335 4.39787 97.3964 5.35406C98.2605 6.30834 98.6913 7.60157 98.6913 9.23367V10.3953H91.5431C91.614 11.0055 91.8915 11.4873 92.381 11.839C92.8668 12.1924 93.5018 12.3655 94.2821 12.3655Z" fill="#847fd8"/>
<path d="M110 4.1488V13.365C110 15.1519 109.514 16.5162 108.548 17.4636C107.576 18.4122 106.23 18.8881 104.501 18.8881C102.942 18.8881 101.86 18.6928 101.264 18.3056C100.731 17.9607 100.471 17.4823 100.471 16.8745C100.471 16.1392 100.63 15.5669 100.95 15.1519C101.742 15.8703 102.783 16.2305 104.064 16.2305C104.998 16.2305 105.697 16.0446 106.163 15.6685C106.628 15.2947 106.865 14.6532 106.865 13.7412V12.7437C105.987 13.9626 104.851 14.5678 103.456 14.5678C102.272 14.5678 101.362 14.1976 100.719 13.4486C100.078 12.7014 99.7566 11.6101 99.7566 10.1706V4.1488H100.99C102.259 4.1488 102.893 4.74468 102.893 5.93574V9.87896C102.893 11.2357 103.423 11.9127 104.481 11.9127C105.553 11.9127 106.349 11.4486 106.865 10.5215V4.1488H110Z" fill="#847fd8"/>
</g>
<defs>
<clipPath id="clip0">
<rect width="110" height="18.9444" fill="#847fd8"/>
</clipPath>
</defs>
</svg>
