<svg xmlns="http://www.w3.org/2000/svg" width="100" height="48" viewBox="0 0 100 48">
    <path fill="#847fd8" fill-rule="nonzero" d="M7.591 16.525h.084c1.46-2.628 3.963-3.796 6.924-3.796h1.46v7.3c-1.043-.585-2.044-.71-3.212-.71-4.213 0-5.256 2.794-5.256 6.465v8.635H0V13.02h7.591v3.504zm12.402-3.504h7.591V34.42h-7.591V13.02zM40.88 15.44h.084c1.376-2.127 3.962-3.129 6.465-3.129 6.382 0 10.803 5.34 10.803 11.47 0 6.173-4.38 11.347-10.72 11.347-2.46 0-5.005-.876-6.632-2.753v11.72L33.289 47.3V13.02h7.591v2.419zm-.25 8.301c0 2.711 1.793 4.797 4.88 4.797 3.087 0 4.88-2.086 4.88-4.797 0-2.628-1.793-4.838-4.88-4.838-3.087-.001-4.88 2.21-4.88 4.838zm21.64-10.72h7.591V34.42H62.27V13.02zm37.189 10.72c0 7.258-6.006 11.388-12.888 11.388-6.84 0-12.889-4.089-12.889-11.388 0-7.299 6.006-11.429 12.889-11.429 6.882 0 12.888 4.13 12.888 11.43zm-17.769 0c0 2.711 1.794 4.797 4.88 4.797 3.087 0 4.88-2.086 4.88-4.797 0-2.628-1.793-4.838-4.88-4.838-3.086-.001-4.88 2.21-4.88 4.838zM27.567 7.072l-7.416 2.99V2.989L27.583 0l-.016 7.072zm42.199 0l-7.417 2.99V2.989L69.782 0l-.016 7.072z"/>
</svg>
