<svg fill="none" height="32" viewBox="0 0 110 32" width="110" xmlns="http://www.w3.org/2000/svg" xmlns:xlink="http://www.w3.org/1999/xlink"><clipPath id="a"><path d="m0 0h110v32h-110z"/></clipPath><g clip-path="url(#a)" fill="#847fd8"><path d="m8.77748 12.9995c-.32597-.4208-.80603-.7705-1.42834-1.0372-.62231-.2726-1.65356-.5216-2.64925-.7468-.94235-.2133-1.62392-.4445-2.01508-.6934-.40302-.2489-.60453-.61046-.60453-1.07867 0-.55119.22522-.98977.67565-1.30388.4445-.30819 1.06088-.46821 1.83136-.46821.97791 0 2.13362.28448 3.16487.78232v-1.76023c-.243-.11261-.54526-.23707-.79418-.32005-.74677-.24892-1.54688-.37338-2.37069-.37338-.90679 0-1.71283.15409-2.40626.45636-.69342.30226-1.232752.73491-1.612063 1.27424-.37931.53934-.568967 1.16164-.568967 1.84322 0 .66378.160022 1.21498.468212 1.64168.308189.4327.776398.7883 1.392778 1.0668.61638.2786 1.42834.5275 2.41218.7349.9542.2134 1.86099.4386 2.26993.6757.41488.2371.62824.5927.62824 1.0431 0 .5215-.23114.9305-.68158 1.2209-.4445.2845-1.30388.4326-2.12769.4326-.74084 0-1.44019-.1007-2.07435-.3022-.60453-.1897-1.600219-.7586-2.186965-1.1913v2.0032c.420798.2667 1.054955.6105 1.683195.8002.79418.243 1.65355.3674 2.56034.3674.96013 0 2.02101-.1422 2.72629-.4267s1.25647-.6875 1.62392-1.215c.37339-.5215.56305-1.1438.56305-1.8373.01185-.6341-.1541-1.1735-.48007-1.5883z"/><path d="m19.475 15.3642-2.3588-6.90461h-1.3395l-2.424 6.86911-2.3055-6.86911h-1.92025l3.40195 9.58941h1.5232l2.3469-6.632 2.3352 6.632h1.5231l3.4138-9.58941h-1.8195z"/><path d="m26.9434 8.45959h-1.8965v9.59541h1.8965z"/><path d="m34.6113 13.1002c-.5038-.2193-1.1617-.4208-1.9618-.5986-.7408-.166-1.2742-.3497-1.5824-.5394-.2904-.1837-.4386-.4385-.4386-.7764 0-.4148.166-.7289.4979-.9601.3378-.23706.8119-.3556 1.4046-.3556.7645 0 1.7069.2371 2.5188.6282l.1127.0534v-1.62394l-.0415-.02371c-.2015-.09483-.4505-.19558-.6579-.2667-.6105-.20151-1.2565-.30227-1.9262-.30227-.7349 0-1.3928.12446-1.9617.37339-.569.24892-1.0135.60452-1.3276 1.04903-.3141.4504-.4742.9661-.4742 1.5291 0 .5512.1304 1.0135.3912 1.3691s.646.6519 1.1498.883c.4978.2253 1.1498.4268 1.944.5927.7526.166 1.2979.3438 1.618.5275.3022.1719.4504.4208.4504.7468 0 .3852-.16.6756-.4979.8949-.3437.2193-.8356.3319-1.4757.3319-.5808 0-1.1261-.1008-1.6299-.2371-.6519-.1837-1.7128-.8297-1.7128-.8297v1.7424l.0356.0238c.3496.2252.6993.3793 1.2149.5393.6401.1956 1.3395.2963 2.0744.2963.7823 0 1.4698-.1185 2.0447-.3497.5808-.2311 1.0313-.5689 1.3454-1.0016.3082-.4326.4682-.9482.4682-1.5231 0-.5334-.1422-.978-.4149-1.3336-.2607-.3437-.6578-.6341-1.1675-.8593z"/><path d="m43.5546 13.1002c-.5038-.2193-1.1616-.4208-1.9617-.5986-.7409-.166-1.2743-.3497-1.5825-.5394-.2904-.1837-.4385-.4385-.4385-.7764 0-.4148.1659-.7289.4978-.9601.3378-.23706.812-.3556 1.4046-.3556.7646 0 1.7069.2371 2.5189.6282l.1126.0534v-1.62394l-.0415-.02371c-.2015-.09483-.4504-.19558-.6578-.2667-.6105-.20151-1.2565-.30227-1.9262-.30227-.7349 0-1.3928.12446-1.9618.37339-.5689.24892-1.0134.60452-1.3276 1.04903-.3141.4504-.4741.9661-.4741 1.5291 0 .5512.1304 1.0135.3912 1.3691.2607.3556.646.6519 1.1497.883.4979.2253 1.1498.4268 1.944.5927.7527.166 1.298.3438 1.618.5275.3023.1719.4504.4208.4504.7468 0 .3852-.16.6756-.4978.8949-.3438.2193-.8357.3319-1.4758.3319-.5808 0-1.126-.1008-1.6298-.2371-.652-.1837-1.7128-.8297-1.7128-.8297v1.7424l.0355.0238c.3497.2252.6994.3793 1.215.5393.6401.1956 1.3394.2963 2.0744.2963.7823 0 1.4698-.1185 2.0447-.3497.5808-.2311 1.0312-.5689 1.3453-1.0016.3082-.4326.4683-.9482.4683-1.5231 0-.5334-.1423-.978-.4149-1.3336-.2608-.3437-.6579-.6341-1.1676-.8593z"/><path d="m55.0477 14.5404-3.2182-6.08081h-1.4994v9.58941h1.695l-.0178-5.9445 2.4004 4.4214h1.2505l2.3885-4.4806v6.0037h1.6891v-9.58941h-1.4817z"/><path d="m61.6016 18.049h6.5194v-1.5172h-4.6703v-2.6078h4.3976v-1.5054h-4.3976v-2.44176h4.6703v-1.51725h-6.5194z"/><path d="m73.279 8.45959h-3.5856v9.59541h3.5856c1.5706 0 2.8034-.4268 3.6746-1.2684s1.3098-2.0328 1.3098-3.5382-.4386-2.6907-1.3098-3.53234c-.8653-.83567-2.104-1.25647-3.6746-1.25647zm-1.6891 1.55871h1.5824c2.1514 0 3.2005 1.055 3.2005 3.2301 0 2.181-1.0491 3.2419-3.2005 3.2419h-1.5824z"/><path d="m81.6876 8.45959h-1.8966v9.59541h1.8966z"/><path d="m87.8876 9.89979c.4623 0 1.0964.11851 1.5113.24891.7823.243 1.1913.4623 1.1913.4623l-.0119-1.66541s-.486-.22522-.8949-.34968c-.6579-.19558-1.1853-.25485-1.8254-.25485-.9424 0-1.7781.20151-2.4833.60453-.7053.40302-1.2565.98384-1.6358 1.71871-.3793.735-.569 1.6062-.569 2.5841 0 .9838.1897 1.8551.569 2.59.3793.7408.9305 1.3216 1.6358 1.7246.7052.4031 1.5409.6046 2.4833.6046 1.6298 0 2.7203-.6046 2.7203-.6046l.0178-1.6654s-1.4283.7172-2.7085.7053c-.889-.0059-1.5824-.2904-2.0625-.8594-.486-.5689-.729-1.4164-.729-2.507 0-1.0846.243-1.9202.729-2.4951.4801-.5571 1.1735-.84161 2.0625-.84161z"/><path d="m97.4712 8.45959h-1.5172l-4.3739 9.59541h1.9262l.9601-2.2107h4.528l.9601 2.2107h1.8965zm.8713 5.89121h-3.2419l1.6239-3.7457z"/><path d="m104.927 6.37341h-1.861v11.67569h6.923v-1.6062h-5.062z"/><path d="m3.30179 21.795h.6638v3.882h-.7527v-2.2995l-.89493 1.6654h-.55119l-.894935-1.6417v2.2818h-.752694v-3.882h.675646l1.250543 2.3707z"/><path d="m7.74023 25.6768v-3.882h2.67887v.6638h-1.83727v.9068h1.73057v.6638h-1.73057v.972h1.83727v.6638h-2.67887z"/><path d="m14.1309 21.7948h1.5113c.4208 0 .7882.077 1.0905.2311s.5393.3734.6993.6638c.1601.2904.243.6401.243 1.0431 0 .4031-.077.7527-.237 1.0431-.1601.2905-.3912.5157-.6994.6698-.3023.1541-.6697.2311-1.0964.2311h-1.5113zm1.4461 3.1827c.8238 0 1.2387-.4149 1.2387-1.2506 0-.8297-.4149-1.2446-1.2387-1.2446h-.5868v2.4952z"/><path d="m21.4434 25.6768v-3.882h.8593v3.882z"/><path d="m27.7622 25.4752c-.2904-.1659-.5156-.3971-.6697-.6993-.1541-.3023-.2312-.652-.2312-1.049 0-.3971.0771-.7468.2312-1.0491.1541-.3022.3793-.5334.6697-.6993.2904-.166.6341-.243 1.0253-.243.2549 0 .5038.0415.7349.1185.2371.0771.4268.1897.5808.326l-.2726.6104c-.1659-.1304-.3378-.2193-.5038-.2785-.1659-.0593-.3378-.0889-.5215-.0889-.3438 0-.6105.1126-.7942.3319s-.2785.5452-.2785.972c0 .4267.0948.7526.2785.9719s.4504.3319.7942.3319c.1778 0 .3556-.0296.5215-.0889.166-.0592.3379-.1541.5038-.2785l.2726.6104c-.1481.1423-.3437.249-.5808.326-.237.077-.48.1185-.7349.1185-.3912.006-.7349-.077-1.0253-.243z"/><path d="m34.6602 25.6768v-3.882h.8593v3.882z"/><path d="m43.2128 21.7948h.806v3.882h-.6401l-1.9321-2.4714v2.4714h-.8001v-3.882h.6341l1.9322 2.4596z"/><path d="m51.0719 25.6768-.3674-.8594h-1.8077l-.3674.8594h-.8653l1.7839-3.882h.6875l1.7839 3.882zm-1.8906-1.5113h1.2446l-.6223-1.4521z"/><path d="m58.8535 21.7948h1.784c.4208 0 .7527.1067.9838.32.2371.2134.3497.5097.3497.895 0 .3852-.1186.6816-.3497.8949-.2371.2134-.563.3201-.9838.3201h-.9246v1.4579h-.8594zm1.6714 1.7721c.4267 0 .646-.1837.646-.5571 0-.1897-.0534-.3319-.1601-.4267-.1066-.0889-.2667-.1364-.4859-.1364h-.8179v1.1202z"/><path d="m70.007 25.6768h-.9364l-.6697-1.2387c-.0534-.0948-.1186-.1659-.1956-.2074-.0771-.0415-.1719-.0652-.2904-.0652h-.4268v1.5113h-.8475v-3.882h1.784c.4563 0 .8001.1008 1.0312.3023.2312.2015.3497.4919.3497.8653 0 .2963-.083.5393-.243.7349-.1659.1956-.3912.3259-.6934.3911.2015.0534.3734.1956.5097.4327zm-1.1794-2.2936c.1126-.0889.1659-.2193.1659-.4031 0-.1896-.0533-.3259-.1659-.4089s-.2904-.1245-.5334-.1245h-.8179v1.0669h.8179c.2489 0 .4267-.0415.5334-.1304z"/><path d="m75.8027 25.6768v-3.882h.8594v3.882z"/><path d="m84.9361 21.7948h.8712l-1.7484 3.882h-.6875l-1.7484-3.882h.895l1.209 2.8152z"/><path d="m93.3356 25.6768-.3675-.8594h-1.8076l-.3675.8594h-.8653l1.784-3.882h.6875l1.7839 3.882zm-1.8965-1.5113h1.2446l-.6223-1.4521z"/><path d="m98.1953 21.7948h1.5113c.4204 0 .7884.077 1.0904.2311s.539.3734.7.6638c.16.2904.242.6401.242 1.0431 0 .4031-.077.7527-.237 1.0431-.16.2905-.391.5157-.699.6698-.302.1541-.67.2311-1.0964.2311h-1.5113zm1.4461 3.1827c.8236 0 1.2386-.4149 1.2386-1.2506 0-.8297-.415-1.2446-1.2386-1.2446h-.5867v2.4952z"/><path d="m109.154 25.6768-.368-.8594h-1.807l-.368.8594h-.865l1.784-3.882h.688l1.783 3.882zm-1.897-1.5113h1.245l-.622-1.4521z"/></g></svg>