<svg width="110" height="32" viewBox="0 0 110 32" fill="none" xmlns="http://www.w3.org/2000/svg">
<path d="M52.2389 7.00098H47.5801V25.6314H52.2389V7.00098Z" fill="#847fd8"/>
<path d="M105.34 7.00098V19.8091H109.999V7.00098H105.34ZM105.34 25.6314H109.999V20.9752H105.34V25.6314Z" fill="#847fd8"/>
<path d="M0 7.00195V11.6608H4.65719V25.6323H9.31493V11.6608H13.9732V7.00195H0Z" fill="#847fd8"/>
<path d="M98.3402 7H98.3391V7.00108H93.7336V7C91.1603 7 89.0742 9.08611 89.0742 11.6583V11.6599H89.0758V25.6315H93.7336V20.9753H98.3391V25.6315H102.997V11.6599V11.6583C102.997 9.08611 100.913 7 98.3402 7ZM93.7336 16.3155V11.6599H98.3391V16.3155H93.7336Z" fill="#847fd8"/>
<path d="M24.3601 7H24.359V7.00108H19.754V7H19.7524C17.1797 7 15.0957 9.08611 15.0957 11.6583V11.6599V25.6315H19.754V20.9753H24.3601V25.6315H29.0173V11.6599V11.6583C29.0173 9.08611 26.9322 7 24.3601 7ZM19.7534 16.3155V11.6599H24.3585H24.3596V16.3155H19.7534Z" fill="#847fd8"/>
<path d="M86.9913 20.9684V14.6568H79.9674V18.1505H82.3336V20.9684H82.3314V20.9753H77.7124V20.9684H77.7119V11.6599H77.7124H85.7101V7.00108H77.7124V7H77.7119C75.1387 7 73.0547 9.08611 73.0547 11.6583V11.6599V20.9684V20.971C73.0547 23.5378 75.1333 25.6229 77.6995 25.6282V25.6315H82.3589V25.6282C84.9197 25.6148 86.9929 23.5351 86.9929 20.9684H86.9913Z" fill="#847fd8"/>
<path d="M45.3407 11.6583C45.3407 9.08611 43.2551 7 40.6835 7C40.683 7 40.6819 7.00108 40.6819 7.00108H31.3691V25.6315H36.0258V20.9753H37.8587L39.827 25.6315H44.4853L42.3777 20.6474C44.1089 19.9683 45.338 18.2876 45.3407 16.3149V11.6599V11.6583ZM40.683 16.3074H40.6819V16.316H36.0258V11.6599H40.6819H40.683V16.3074Z" fill="#847fd8"/>
<path d="M66.3151 7.00098V18.1563L59.3631 7.00098H54.6699V25.6314H59.3271V14.4174L66.3151 25.6314H70.9723V7.00098H66.3151Z" fill="#847fd8"/>
</svg>
