<svg xmlns="http://www.w3.org/2000/svg" width="162" height="28" viewBox="0 0 162 28">
    <path fill="#847fd8" fill-rule="nonzero" d="M9.68 14.005a4.302 4.302 0 0 1 4.298-4.306 4.299 4.299 0 0 1 4.292 4.306 4.3 4.3 0 0 1-4.292 4.303 4.303 4.303 0 0 1-4.298-4.303zM1.6 5.051a3.437 3.437 0 1 1 6.872 0 3.435 3.435 0 1 1-6.872 0zm17.875 0a3.441 3.441 0 0 1 3.436-3.445 3.446 3.446 0 0 1 0 6.89 3.44 3.44 0 0 1-3.436-3.445zm0 17.908a3.436 3.436 0 0 1 3.436-3.437 3.436 3.436 0 0 1 3.441 3.437 3.443 3.443 0 0 1-3.441 3.445 3.443 3.443 0 0 1-3.436-3.445zm-17.875 0a3.434 3.434 0 1 1 6.87 0 3.441 3.441 0 0 1-3.436 3.445A3.44 3.44 0 0 1 1.6 22.959zM.055 14.005a3.871 3.871 0 0 1 3.867-3.877 3.874 3.874 0 0 1 3.867 3.877 3.872 3.872 0 0 1-3.867 3.874 3.869 3.869 0 0 1-3.867-3.874zm20.107 0a3.876 3.876 0 0 1 3.872-3.877 3.873 3.873 0 0 1 3.867 3.877 3.872 3.872 0 0 1-3.867 3.874 3.873 3.873 0 0 1-3.872-3.874zM10.108 24.079a3.873 3.873 0 0 1 3.87-3.877 3.874 3.874 0 0 1 3.864 3.877 3.872 3.872 0 0 1-3.864 3.874 3.871 3.871 0 0 1-3.87-3.874zm0-20.145a3.876 3.876 0 0 1 3.87-3.88 3.874 3.874 0 0 1 3.864 3.88 3.869 3.869 0 0 1-3.864 3.869 3.87 3.87 0 0 1-3.87-3.869zM161.031 15.4c.608 1 .914 2.129.914 3.368a7.224 7.224 0 0 1-1.21 4.041c-.801 1.229-1.924 2.166-3.362 2.807-1.446.633-3.26.948-5.453.948-3.849 0-6.508-.747-7.996-2.238-1.48-1.485-2.32-3.381-2.516-5.685l6.656-.416c.145 1.091.433 1.92.877 2.484.719.924 1.75 1.382 3.09 1.382.996 0 1.763-.24 2.302-.696.54-.474.817-1.028.817-1.647 0-.593-.262-1.12-.77-1.581-.515-.466-1.715-.908-3.583-1.321-3.072-.697-5.255-1.613-6.563-2.765-1.32-1.155-1.975-2.611-1.975-4.393 0-1.173.336-2.275 1-3.308.684-1.048 1.696-1.861 3.042-2.454 1.36-.599 3.219-.9 5.574-.903 2.889 0 5.093.543 6.61 1.63 1.52 1.081 2.427 2.795 2.715 5.162l-6.592.381c-.177-1.024-.55-1.769-1.115-2.237-.558-.464-1.322-.697-2.31-.697-.812 0-1.425.178-1.843.53-.407.341-.61.755-.61 1.252 0 .366.166.692.51.98.327.307 1.102.58 2.339.84 3.063.662 5.25 1.337 6.568 2.017 1.324.678 2.29 1.512 2.884 2.519zm-28.264 1.91V3.41h6.975v13.572a11.363 11.363 0 0 1-.631 3.821 8.188 8.188 0 0 1-1.956 3.136c-.888.89-1.813 1.52-2.8 1.88-1.358.506-2.989.757-4.894.757-1.097 0-2.305-.077-3.616-.233-1.285-.153-2.376-.455-3.249-.91-.877-.47-1.678-1.121-2.413-1.974-.721-.852-1.213-1.72-1.477-2.619-.44-1.456-.653-2.738-.653-3.858V3.411h6.98v13.9c0 1.236.339 2.219 1.015 2.918.693.69 1.644 1.035 2.86 1.035 1.205 0 2.146-.336 2.823-1.022.693-.689 1.036-1.666 1.036-2.931zm-35.14-8.28V3.416h18.832V9.03h-5.915v17.146h-6.997V9.03h-5.92zm-20.519 0V3.416h18.825V9.03h-5.918v17.146h-6.991V9.03h-5.916zM53.456 3.415v5.614h-5.913v17.149H40.55V9.028h-5.918V3.416h18.824zm11.799-.328c6.565 0 11.894 5.357 11.894 11.966 0 6.602-5.329 11.964-11.894 11.964-6.571 0-11.9-5.362-11.9-11.964 0-6.61 5.329-11.966 11.9-11.966zm0 17.946c3.277 0 5.944-2.677 5.944-5.98 0-3.307-2.667-5.987-5.944-5.987-3.286 0-5.95 2.68-5.95 5.987 0 3.305 2.664 5.98 5.95 5.98z"/>
</svg>
