<svg width="110" height="32" viewBox="0 0 110 32" fill="none" xmlns="http://www.w3.org/2000/svg">
<path d="M66.4958 9.94727H63.2949V22.8362H66.4958V9.94727Z" fill="#847fd8"/>
<path d="M76.2029 9.70415C75.4435 9.68812 74.6905 9.84547 74.0011 10.1642C73.4232 10.4269 72.9163 10.8235 72.5222 11.321C72.5222 11.2684 72.1804 10.6638 71.7532 9.94734H69.4199V22.8363H72.6077V15.212C72.5897 14.8624 72.6493 14.5131 72.7823 14.1893C72.9153 13.8654 73.1182 13.575 73.3767 13.3388C73.8987 12.8918 74.5696 12.6572 75.2564 12.6816C75.5811 12.6673 75.9054 12.7182 76.2101 12.831C76.5149 12.9439 76.794 13.1166 77.0311 13.3388C77.2627 13.591 77.4405 13.8878 77.5535 14.211C77.6665 14.5342 77.7124 14.8771 77.6883 15.2186V22.8429H80.8892V14.3905C80.9183 13.7628 80.8164 13.136 80.5901 12.5499C80.3638 11.9637 80.018 11.4311 79.5747 10.9858C79.1255 10.548 78.5922 10.2057 78.007 9.97979C77.4218 9.75385 76.7969 9.6489 76.17 9.67129" fill="#847fd8"/>
<path d="M106.838 9.97363V17.6505C106.857 17.9993 106.797 18.3478 106.664 18.6707C106.531 18.9937 106.328 19.2828 106.069 19.5171C105.537 19.9648 104.858 20.199 104.163 20.1744C103.838 20.1886 103.514 20.1378 103.209 20.0249C102.904 19.9121 102.625 19.7394 102.388 19.5171C102.149 19.2701 101.964 18.9759 101.846 18.6533C101.727 18.3308 101.677 17.987 101.698 17.6439V9.97363H98.5103V18.4721C98.4825 19.0996 98.5849 19.7261 98.8111 20.312C99.0374 20.898 99.3825 21.4307 99.8249 21.8767C100.274 22.3011 100.802 22.6323 101.38 22.8512C101.957 23.0701 102.573 23.1722 103.19 23.1518C103.961 23.1669 104.725 23.0073 105.425 22.6852C106.017 22.4128 106.534 21.9999 106.93 21.4824C106.93 21.4824 107.259 22.1396 107.673 22.8429H109.999V9.97363H106.838Z" fill="#847fd8"/>
<path d="M64.8845 4.2028C64.6421 4.19461 64.4005 4.23583 64.1745 4.32397C63.9485 4.4121 63.7428 4.54531 63.57 4.71547C63.4019 4.88955 63.2705 5.0956 63.1836 5.32141C63.0966 5.54721 63.0559 5.78817 63.0639 6.03C63.0544 6.27201 63.0944 6.5134 63.1814 6.73942C63.2685 6.96544 63.4007 7.17134 63.57 7.34453C63.744 7.51258 63.9501 7.64397 64.1759 7.7309C64.4017 7.81784 64.6427 7.85855 64.8845 7.85063C65.1261 7.85708 65.3667 7.81569 65.5923 7.72883C65.8179 7.64198 66.0241 7.51137 66.199 7.34453C66.3692 7.17166 66.5024 6.96597 66.5905 6.73998C66.6787 6.51399 66.7199 6.27243 66.7117 6.03C66.7187 5.78771 66.677 5.54647 66.5889 5.32065C66.5008 5.09482 66.3682 4.88901 66.199 4.71547C66.0249 4.54742 65.8189 4.41604 65.5931 4.3291C65.3673 4.24217 65.1263 4.20145 64.8845 4.20938" fill="#847fd8"/>
<path d="M89.5139 20.2664C87.2397 20.2664 86.2736 18.3735 86.2736 16.4083C86.2736 14.443 87.2397 12.5567 89.5139 12.5567C91.788 12.5567 92.7476 14.4496 92.7476 16.4083C92.7476 18.3669 91.7814 20.2664 89.5139 20.2664ZM92.8002 11.3868C92.318 10.8197 91.711 10.3721 91.0268 10.079C90.3426 9.7859 89.5998 9.65536 88.8566 9.69758C88.0659 9.67625 87.2805 9.83361 86.559 10.1579C85.8375 10.4823 85.1985 10.9652 84.6896 11.5708C83.5749 12.9227 82.997 14.6377 83.0661 16.3885C83.0029 18.1425 83.58 19.8596 84.6896 21.2194C85.1966 21.8286 85.8347 22.3153 86.5563 22.6431C87.2779 22.9709 88.0643 23.1313 88.8566 23.1124C91.1242 23.1124 92.373 22.041 92.7411 21.5152V22.3631C92.7525 22.9558 92.5442 23.5318 92.1561 23.98C91.7656 24.4275 91.2648 24.7651 90.7035 24.9593C90.0842 25.162 89.4359 25.2619 88.7843 25.2551C88.008 25.2528 87.2343 25.1647 86.4773 24.9922L86.2933 24.9527L85.0708 27.4503C85.4837 27.5964 85.9051 27.7171 86.3327 27.8118C87.1966 27.9988 88.0779 28.0935 88.9618 28.0944C89.8506 28.0962 90.7354 27.9745 91.5908 27.733C92.376 27.5079 93.1196 27.1572 93.7927 26.6945C94.4391 26.2372 94.9628 25.6277 95.3175 24.9199C95.7 24.1507 95.8916 23.3008 95.8762 22.442V9.95391H93.5495C93.0565 10.8281 92.7542 11.3933 92.7542 11.3933" fill="#847fd8"/>
<path d="M55.7495 19.5959L52.8707 9.98669H50.7149L47.8229 19.5959L45.2004 9.98669H41.9141L45.6999 22.8297H49.6567L51.7928 15.6129L53.9223 22.8297H57.879L61.6386 9.98669H58.3523L55.7495 19.5959Z" fill="#847fd8"/>
<path d="M20.8945 13.2533C17.2879 11.1154 13.1957 9.93226 9.0046 9.8158C6.18018 9.77384 3.40563 10.5623 1.02539 12.0834C1.44442 13.5245 1.94698 14.94 2.53053 16.3227C4.34183 14.8118 6.64735 14.023 9.0046 14.1077C12.4467 14.2235 15.8029 15.2118 18.7584 16.98C21.7537 18.7037 24.5075 20.8166 26.948 23.2635L27.5264 23.9207C28.4189 22.7509 29.2335 21.5235 29.9648 20.2466C27.2694 17.5185 24.2185 15.1662 20.8945 13.2533Z" fill="#847fd8"/>
<path d="M9.00406 20.0889C7.61066 20.0889 6.59847 20.4635 6.22382 21.1208C6.06555 21.4236 6.00363 21.7676 6.04636 22.1067C6.09622 22.5829 6.2733 23.037 6.55903 23.4212C7.58585 24.8215 8.71974 26.1399 9.95052 27.3648C11.7056 25.4246 13.6922 23.7072 15.8659 22.2513C15.8713 22.2477 15.8758 22.2428 15.8789 22.2371C15.8819 22.2313 15.8836 22.2249 15.8836 22.2184C15.8836 22.2119 15.8819 22.2055 15.8789 22.1998C15.8758 22.194 15.8713 22.1891 15.8659 22.1855C13.7897 20.9244 11.4306 20.2035 9.00406 20.0889Z" fill="#847fd8"/>
<path d="M18.0625 18.2091C15.3237 16.5472 12.2066 15.6107 9.00539 15.488C7.93267 15.4382 6.86088 15.6045 5.85372 15.9771C4.84656 16.3497 3.92458 16.921 3.14258 17.657C3.59319 18.6254 4.09563 19.5688 4.64772 20.4832C5.19322 19.8739 5.86686 19.3928 6.62029 19.0746C7.37371 18.7565 8.18823 18.609 9.00539 18.6429C11.6564 18.769 14.2331 19.5601 16.4982 20.9433C16.7283 21.0748 18.3911 22.1067 18.917 22.4813C20.971 23.868 22.8434 25.5064 24.4906 27.3582C25.2596 26.5892 25.976 25.8005 26.6333 25.0052C26.4098 24.7554 26.1732 24.4991 25.93 24.2428C23.5878 21.8902 20.9419 19.8611 18.0625 18.2091Z" fill="#847fd8"/>
<path d="M3.94359 5.33992C2.59874 5.82937 1.28217 6.3933 0 7.02909C0.132027 8.25262 0.35168 9.46511 0.657266 10.6572C3.17841 9.15072 6.06782 8.37263 9.00454 8.40935C13.4404 8.52247 17.7735 9.76922 21.5912 12.0309C24.9019 13.9274 27.953 16.2449 30.668 18.9256C31.4672 17.3923 32.1569 15.8043 32.7318 14.1736C30.0589 11.744 27.1326 9.60876 24.0033 7.80467C22.161 6.75093 20.2247 5.87079 18.2194 5.1756C13.583 3.59041 8.54233 3.64843 3.94359 5.33992Z" fill="#847fd8"/>
<path d="M17.2147 3.00002C16.8269 3.00002 16.4325 3.00002 16.0645 3.00002C19.0928 3.80194 21.9997 5.00673 24.7075 6.58211C27.7422 8.33455 30.5937 10.3867 33.2191 12.7078C33.8102 10.8599 34.2153 8.9575 34.4285 7.02906C29.0791 4.37361 23.1869 2.99449 17.2147 3.00002Z" fill="#847fd8"/>
</svg>
