<svg width="110" height="32" viewBox="0 0 110 32" fill="none" xmlns="http://www.w3.org/2000/svg">
<path d="M47.8806 9.55054H37.5799L36.3113 12.348C36.7341 12.1203 36.8968 12.0444 37.2654 11.8926C37.851 11.6649 38.5015 11.4806 39.1196 11.3721C39.6617 11.2746 40.1605 11.2312 40.9629 11.2095C41.3315 11.1987 41.6677 11.1986 41.9821 11.1986H43.511L35.498 22.6488H46.8289L48.13 19.6561C47.6746 19.9163 47.512 20.0031 47.165 20.1657C46.5036 20.4585 45.788 20.6753 45.0506 20.8055C44.4651 20.9139 43.8037 20.9681 42.9905 20.9898C42.7194 21.0006 42.3725 21.0006 41.9387 21.0006H39.9328L47.8806 9.55054Z" fill="#847fd8"/>
<path d="M81.9265 22.6488C81.7204 22.4644 81.6554 22.3885 81.5253 22.1825C81.4385 22.0524 81.3735 21.9223 81.3193 21.7813C81.2 21.4886 81.1349 21.044 81.1349 20.632V12.7492L81.1458 11.9793C81.1458 11.1011 81.1675 10.8625 81.2867 10.5047C81.3301 10.3638 81.3843 10.2228 81.4711 10.0927C81.6012 9.86498 81.6987 9.76739 81.959 9.55054H77.752C78.0339 9.78908 78.1206 9.87582 78.2399 10.071C78.3266 10.2011 78.4025 10.3421 78.4459 10.4939C78.5435 10.8083 78.576 11.1228 78.576 11.9034C78.5868 12.3046 78.5868 12.5649 78.5868 12.695V20.5344C78.5868 20.9898 78.5001 21.4886 78.3808 21.803C78.3266 21.9331 78.2507 22.0632 78.1748 22.1825C78.0664 22.3235 78.0013 22.4102 77.7736 22.6488H81.9264" fill="#847fd8"/>
<path d="M95.0799 9.65892C94.7546 9.55049 94.6353 9.51797 94.2775 9.44207C93.5294 9.27942 92.8029 9.21436 91.9788 9.21436C90.5693 9.21436 89.3548 9.43122 88.2489 9.9083C87.5875 10.1794 86.9802 10.548 86.4489 10.9709C84.8334 12.2721 83.9551 14.1587 83.9551 16.3273C83.9551 18.4308 84.8008 20.2524 86.3405 21.4777C87.62 22.4752 89.2681 22.9849 91.2415 22.9849C92.4776 22.9849 93.6161 22.8005 94.9173 22.3993C94.9606 22.3885 95.0365 22.3668 95.1233 22.3343V19.9488C94.8088 20.1657 94.7112 20.2308 94.5161 20.3392C94.2667 20.491 93.9956 20.6211 93.7137 20.7404C92.9222 21.0765 92.2065 21.2283 91.4258 21.2283C90.0705 21.2283 88.9103 20.7404 88.0537 19.8187C87.208 18.8971 86.7417 17.6284 86.7417 16.1863C86.7417 14.8201 87.1754 13.5407 87.9236 12.6516C88.2597 12.2721 88.6609 11.9359 89.1163 11.6865C89.8536 11.2745 90.7211 11.0577 91.6535 11.0577C92.4451 11.0577 93.2258 11.2095 94.0065 11.5239C94.4835 11.7299 94.657 11.8275 95.0799 12.1203V9.65892Z" fill="#847fd8"/>
<path d="M106.563 16.7069V19.8947C106.563 20.6103 106.552 20.8705 106.508 21.2283C106.487 21.4344 106.432 21.6187 106.367 21.7922C106.27 22.0416 106.118 22.2693 105.901 22.4753C105.858 22.5187 105.793 22.5729 105.717 22.6488H109.902C109.729 22.4753 109.664 22.3994 109.544 22.2367C109.447 22.0958 109.36 21.9548 109.306 21.8139C109.176 21.4994 109.143 21.2717 109.132 20.632C109.121 20.2416 109.121 20.0139 109.121 19.9489L109.132 12.7492V11.9685C109.132 11.3938 109.176 10.9493 109.284 10.5806C109.327 10.4071 109.393 10.2445 109.49 10.1035C109.62 9.87582 109.718 9.76739 110 9.55054H105.728C105.977 9.75655 106.064 9.84329 106.205 10.0818C106.302 10.2336 106.378 10.3854 106.422 10.5372C106.53 10.8408 106.563 11.2312 106.563 11.9143V15.1021H100.697V12.7058C100.697 11.9902 100.707 11.5131 100.729 11.1553C100.74 10.9384 100.783 10.7541 100.838 10.5915C100.924 10.2987 101.163 9.9192 101.38 9.6915C101.412 9.65897 101.456 9.61559 101.521 9.55054H97.3244C97.5738 9.81077 97.6389 9.88667 97.7581 10.0493C97.8449 10.1903 97.9208 10.3312 97.9858 10.4939C98.0943 10.83 98.116 11.0143 98.1268 11.8818L98.1376 12.7167V19.8838C98.1376 20.6103 98.1268 20.9356 98.0834 21.2609C98.0617 21.4344 98.0184 21.6078 97.9533 21.7813C97.8449 22.0632 97.6931 22.2909 97.4545 22.5187C97.422 22.5512 97.3678 22.5837 97.3027 22.6488H101.456C101.271 22.4536 101.206 22.3777 101.109 22.2151C101.022 22.0958 100.957 21.9548 100.892 21.803C100.762 21.4669 100.718 21.2175 100.707 20.6645C100.697 20.3826 100.697 20.1224 100.697 19.873V16.7069H106.563Z" fill="#847fd8"/>
<path d="M68.1126 19.9597C68.1126 20.1983 68.1234 20.4151 68.1234 20.6103C68.1343 21.2175 68.1776 21.5319 68.2969 21.8247C68.3511 21.9657 68.427 22.0958 68.5138 22.2259C68.633 22.3777 68.6873 22.4427 68.8824 22.6488H64.7188C64.9573 22.4211 65.0332 22.3452 65.1525 22.1934C65.2501 22.0633 65.326 21.9223 65.3802 21.7705C65.4886 21.4886 65.532 21.1308 65.532 20.5127V11.9143C65.532 11.2203 65.4886 10.8083 65.4019 10.5156C65.3476 10.3529 65.2717 10.1903 65.1742 10.0385C65.044 9.85414 64.9573 9.75655 64.7296 9.55054H68.1126C68.5246 9.55054 68.9366 9.55053 69.327 9.56137C70.3679 9.5939 70.9751 9.65896 71.5606 9.78907C72.4064 9.98424 73.1545 10.4071 73.6967 10.9709C74.2822 11.589 74.5858 12.3155 74.5858 13.1178C74.5858 13.454 74.5316 13.8009 74.4232 14.1262C74.228 14.7226 73.9027 15.1888 73.3931 15.6225C72.9268 16.0021 72.4281 16.2948 71.7775 16.555C71.5389 16.6526 71.4414 16.6852 71.192 16.7611L73.2304 19.1465C73.469 19.4393 73.7943 19.7971 74.1846 20.22C74.7918 20.8814 75.2038 21.3042 75.6701 21.738C75.8653 21.9223 76.0496 22.0958 76.2339 22.2476C76.3966 22.3994 76.4833 22.4753 76.711 22.6488H75.0629C74.8243 22.6488 74.5966 22.6488 74.3798 22.6379C73.8159 22.6162 73.4581 22.5295 73.0786 22.3343C72.6449 22.0958 72.2004 21.7379 71.7233 21.2609C71.5823 21.1091 71.3655 20.8705 71.0944 20.5452C70.845 20.2633 70.6607 20.0573 70.5414 19.9163L68.1126 17.0104V19.9597L68.1126 19.9597ZM68.3294 15.9153C68.5138 15.9153 68.7415 15.8936 69.0125 15.8503C69.7173 15.7527 70.1944 15.59 70.6607 15.319C70.9101 15.178 71.1161 15.0045 71.2787 14.8202C71.6148 14.4515 71.7883 13.9419 71.7883 13.3456C71.7883 12.6625 71.5606 12.1203 71.1052 11.7408C70.8558 11.5239 70.5522 11.3613 70.227 11.2637C69.7282 11.1228 69.0993 11.0469 68.4596 11.0469C68.3511 11.0469 68.2861 11.0469 68.1126 11.0577V15.9045C68.221 15.9045 68.2644 15.9153 68.3294 15.9153" fill="#847fd8"/>
<path d="M62.5838 9.55054H58.4093C58.6695 9.74571 58.7563 9.84329 58.8864 10.0602C58.9731 10.1903 59.0382 10.3421 59.0816 10.5047C59.1683 10.8192 59.19 11.1336 59.19 11.8709V16.8478C59.19 17.9213 59.1683 18.5501 59.0816 19.0706C59.0274 19.4176 58.9189 19.7429 58.7454 20.0356C58.431 20.5669 57.8346 20.979 57.1298 21.1524C56.8479 21.2283 56.5443 21.2609 56.2082 21.2609C55.0805 21.2609 54.1155 20.838 53.6493 20.1549C53.2915 19.6128 53.183 19.1031 53.1722 17.7586L53.1505 16.6852V12.7383C53.1505 11.9685 53.1613 11.5998 53.1939 11.2095C53.2047 10.9818 53.2372 10.7758 53.2915 10.6131C53.3782 10.3095 53.6059 9.90835 53.8228 9.65896C53.8444 9.63728 53.877 9.60475 53.9203 9.55054H49.6699C49.9302 9.76739 50.0169 9.86498 50.147 10.0818C50.2229 10.2228 50.288 10.3746 50.3313 10.5372C50.3747 10.7324 50.4072 10.9384 50.4181 11.1336C50.4181 11.2637 50.4181 11.5348 50.4181 11.9468L50.4289 12.7058V16.4575C50.4289 17.8454 50.4289 18.2032 50.4831 18.767C50.559 19.7212 50.8518 20.491 51.3939 21.1741C52.3915 22.4211 53.9854 23.0825 56.013 23.0825C56.9889 23.0825 57.9322 22.9307 58.6478 22.6596C59.4068 22.3885 60.1008 21.9223 60.5996 21.3585C61.2068 20.6862 61.5537 19.8513 61.6622 18.8212C61.7164 18.2249 61.7489 17.5092 61.7489 16.4792V12.7167L61.7381 11.9685V11.8167C61.7381 11.2529 61.7706 10.9276 61.8465 10.624C61.8899 10.4397 61.9658 10.2553 62.0742 10.0927C62.2152 9.86498 62.3128 9.76739 62.5838 9.55054" fill="#847fd8"/>
<path d="M13.4452 3C6.01782 3 0 9.01781 0 16.4452C0 19.5137 1.03008 22.3329 2.7541 24.5991L13.9223 9.90693L12.7296 9.91778H11.526C10.2574 9.91778 9.05383 10.0045 8.19724 10.1672C7.67678 10.2756 7.21053 10.4599 6.83103 10.731C6.37563 11.0454 5.82264 11.7069 5.45398 12.3574C5.41061 12.4333 5.3564 12.5526 5.2805 12.7044L4.61908 12.5634L5.71421 8.33472H19.7124L8.59843 23.2112C9.31406 23.1461 9.60681 23.1353 10.1923 23.1353C10.6477 23.1353 11.3308 23.157 12.2416 23.2112L14.2151 23.3305C14.9307 23.3738 15.5379 23.3955 15.9933 23.3955C17.0125 23.3955 17.6739 23.3196 18.3354 23.1136C18.845 22.9618 19.3329 22.7233 19.7666 22.4196C20.5473 21.8775 21.3063 21.0101 21.7617 20.1426C21.8051 20.0559 21.881 19.9258 21.9677 19.7523L22.5532 19.9041C22.3689 20.6306 22.2605 20.9125 21.9677 21.5739C21.3714 22.9076 20.6991 23.8075 19.7666 24.4906C18.8124 25.1954 17.7607 25.5424 16.5137 25.5641H16.3186C15.3969 25.5641 14.6813 25.4882 12.4693 25.1521C10.2249 24.8051 9.07552 24.6858 7.94785 24.6858C7.18885 24.6858 6.48406 24.74 5.75758 24.8593C4.79256 25.0219 4.41307 25.1304 3.53479 25.5316C5.99613 28.2098 9.52007 29.8904 13.4452 29.8904C20.8618 29.8904 26.8796 23.8726 26.8796 16.4452C26.8796 9.01782 20.8618 3.00001 13.4452 3.00001" fill="#847fd8"/>
</svg>
